<?xml version="1.0" encoding="utf-8"?>
<!-- Generator: Adobe Illustrator 24.2.3, SVG Export Plug-In . SVG Version: 6.00 Build 0)  -->
<svg version="1.1" id="Calque_1" xmlns="http://www.w3.org/2000/svg" xmlns:xlink="http://www.w3.org/1999/xlink" x="0px" y="0px"
	 viewBox="0 0 70.6 89.8" style="enable-background:new 0 0 70.6 89.8;" xml:space="preserve">
<style type="text/css">
	.st0{fill:#FFFFFF;}
</style>
<polygon class="st0" points="8.7,26 8.7,26 8.7,23.2 "/>
<rect x="24" y="24.1" class="st0" width="3.6" height="0"/>
<polygon class="st0" points="32.9,24.1 32.9,25.3 24,25.3 24,25.3 32.9,25.3 32.9,24.1 28.8,24.1 "/>
<rect x="30.2" y="23.3" class="st0" width="3.6" height="0"/>
<path class="st0" d="M22.5,23.3h3.6H22.5z"/>
<path class="st0" d="M5,23.2V22V23.2z"/>
<path class="st0" d="M11.4,25.3h8.7H11.4z"/>
<g>
	<path class="st0" d="M8.7,23.2H5h0V22h0h8.5h0v1.2h0H9.9V26v0h11.4v-2.7h-3.7h0v-1.2h8.5v1.2h-3.6V26v0h11.4v0v0v-2.7h-3.6v0v-1.2
		h8.5v1.2h0v0H35V26h7.3c0-0.2-0.1-0.4-0.1-0.6h0h-5.7v-1.2h3.6v-2.9H28.8h0v2.9h4.1v1.2H24v0v-1.2v0h3.6v-2.9h0h0H16.2v2.8h3.9h0
		v1.2h0h-8.7h0v-1.2h0H15v-2.8H3.6v2.8h3.6v1.2v0H1.3c-0.1,0.2-0.1,0.5-0.1,0.7h0h7.5V23.2z"/>
	<path class="st0" d="M27.1,63c-3.3,0-3-2.8-5.6-2.8c-2.4,0-4.4,2.5-5.8,2.5c-1.6,0-2.8-1.4-4.3-1.4c-1.2,0-2.6,1.6-4.8,0.9
		c1.2,0.4,3.2-1.6,4.8-1.7c1.7,0,3,1.8,4.3,1.8c0.9,0,3.9-2.7,5.7-2.7c2.5,0,3,3.1,5.6,3.1c0.9,0,2.7-1.9,3.9-1.9
		c1.7,0,2.7,1.3,3.7,1.3c0.6,0,1.2-0.4,1.2-0.4l0.3,0.4c0,0-0.5,0.6-1.6,0.5c-1.1,0-2.6-1.4-3.5-1.4C29.6,61.2,28.5,63,27.1,63
		 M30.8,64.9c-0.3-0.2-0.5-0.4-0.8-0.4c-0.1,0-1.8,1.2-3.1,1.2c-2.4,0-3.2-2.1-5.7-2.1c-1.9,0-2.9,2.2-5.5,2.2c-0.9,0-2.9-1.4-4-1.4
		c-0.4,0-0.2-0.2-0.2-0.2c1.2,0,3.5,1.2,4.3,1.2c1.6,0,3.9-2.4,5.4-2.4c2.4,0,4,2.4,5.6,2.4c1.4,0,2.6-1.1,3.1-1.1
		c0.5,0,0.9,0.4,0.9,0.4L30.8,64.9z M4.8,51.6c0-0.5,0.4-1.2,1.2-1.3c0.7-0.1,1.4-0.2,1.5-0.5c0.3-0.8-0.2-1-0.9-1.6
		c-0.7-0.6-1.1-2.1-0.2-2.8c1-0.8,2.2-0.5,2.7,0.2c0.9,1.1,0.3,2.3,0.8,2.6c0.6,0.1,1.1-0.6,1.2-1.2c0.2-0.6,1.1-0.8,1.5-0.5
		c0.4,0.2,1,0.6,0.5,2.8c-0.5,2.3,0.2,2.3,0.4,2.3c0.2,0,0.7-0.2,0.9-0.5c0.2-0.3,0.1-1.3,0.7-1.2c0.5,0.1,1,0.5,0.8,2.1
		c-0.2,1.8-0.2,2.3,0.1,2.4c0.3,0.2,0.7-0.1,0.9-0.5c0.2-0.4,0.4-0.7,0.9-0.4c1.1,0.7,1.3,3.9,2.1,4.5c-1.1,0.2-5,0.9-5.3,1
		C14.3,59,13.4,59,13.4,58s0.6-0.9,0.3-1.5c-0.3-0.6-2.6,0-3.5,0.2c-0.9,0.2-2.1-0.2-2.3-0.7c-0.2-0.5,0.4-0.8,0.7-1
		c0.3-0.2,0.9-0.7,0.8-1.1c-0.1-0.4-0.6-0.9-0.9-0.9c-0.5-0.1-2.2,0.1-2.9-0.2C5.2,52.6,4.8,52.1,4.8,51.6 M21.4,58.2
		c-0.2,0.1-0.9-0.3-0.8-0.4c0.1-0.1,0.4-1,0.5-1.2C21.1,56.5,21.3,57.6,21.4,58.2 M22.9,57.5c0,0-0.5,0.5-0.6,0.5
		c-0.1,0.1-0.2,0.1-0.4,0c-0.2,0-0.1-0.5-0.1-0.5L22.9,57.5z M15.6,34.1c0.6-0.6,1.7-0.5,2.3,0.2c0.6,0.7,1.2,2,1.9,1.2
		c0.6-0.8,0.5-1.4,0-2.3c-0.5-0.9-0.7-2.9,1.7-3.1c1.8-0.1,2.4,0.9,2.4,1.6c0.1,1-1,1.7-1,2.4c-0.1,1.4,0.7,1.4,0.8,1.4
		c0.5,0,1.4-0.6,2-1.2c0.7-0.7,2-0.4,2.4,0.2c0.5,0.6,0.7,1.9-0.3,3c-0.9,1.1-2.8,2.3-2.1,3.5c0.5,0.8,0.8,0.7,1,0.6
		c0.3-0.2,1.1-0.6,1.5,0c0.6,1.1-0.6,2.4-0.9,2.7c-0.2,0.2-2.7,1.9-2.9,3c-0.2,1.1,0,1.6,0.6,1.6c0.6,0,1.5-0.1,1.3,1
		c-0.2,1.1-2.4,3.7-3,4.4c-0.6,0.7-1.7,1.8-1.7,1.8c0-1.1,0.3-2.8,0.6-3.3c0.3-0.4,2-2.1,2.1-2.2c0.2-0.1,0.3-0.5,0.3-0.5
		s0-0.3-0.2-0.3c-0.1,0-2.9,2.7-2.9,2.7c0-1.5,0.3-3.6,0.3-4c0-0.4,0.3-1.1,0.7-1.6c0.4-0.5,1-1,1.4-1.4c0.5-0.4,1.9-1.9,1.9-2.3
		c0-0.4-0.2,0-0.2,0c-0.3,0.2-1.6,1.7-1.8,1.8c-0.2,0.1-1.4,0.3-2.2,1.7c0,0,0.1-1.2,0.1-2.4c0-1.2,0.1-1.8,0.4-2.2
		c0.3-0.3,0.6-0.8,0.8-1.1c0.1-0.3,0.2-0.6,0.5-1c0.3-0.4,2.6-3.3,2.6-3.5c0.1-0.2-0.1-0.2-0.2-0.1c-0.2,0.1-3.6,3.8-3.6,4
		c0,0.2-0.1,0.6-0.2,0.7c-0.2,0.1-0.3-0.1-0.3-0.2c0-0.2,0.2-7.3,0.1-7.5c-0.1-0.2-0.3,0-0.3,0.2c0,0.2-0.3,7-0.4,7
		c-0.5-0.1-2.5-2.6-2.8-4.1c0-0.2-0.3-0.1-0.2,0.5c0.3,1,2.8,4.6,2.9,5c0.3,0.7,0.2,4.3,0.2,4.5c0,0.2-0.1,0.2-0.2,0
		c-0.4-0.7-2.3-2.4-3.3-3.2c-0.1-0.1-0.3-0.1,0.1,0.4c0.4,0.5,1.9,1.9,2.2,2.4c0.3,0.5,0.3,0.9,0.5,1c0.2,0.1,0.6,0.8,0.6,1.1
		c0,0.3,0.1,3.7-0.2,4.5c-0.2-0.1-2.2-3-2.3-3.1c-0.1-0.1-0.6-0.1-0.6-0.1s2.1,3.3,2.6,3.9c0.5,0.7,0.4,1.8,0.4,2.2
		c0,0.3-0.2,0.2-0.2,0.2c-1-2.7-5.3-5-4.4-7.4c0.5-1.3,1.5,0.3,2-0.4c0.8-1.2-1.4-3.3-2.7-4.8c-0.5-0.6-0.6-2.3,0.5-2.2
		c1.1,0.2,1.2,0.1,1.2-0.2c0.4-0.7,0.2-1.6-1.9-4.3C15.2,36.3,15,34.7,15.6,34.1 M29.7,51.5c0.2,0,0.9,0,0.4-2.3
		c-0.5-2.3,0.1-2.6,0.5-2.8c0.4-0.2,1.3-0.1,1.5,0.5c0.2,0.6,0.6,1.3,1.2,1.2c0.5-0.2-0.2-1.5,0.8-2.6c0.5-0.7,1.7-1,2.7-0.2
		c1,0.8,0.6,2.2-0.2,2.8c-0.7,0.6-1.2,0.8-0.9,1.6c0.1,0.3,0.7,0.4,1.5,0.5c0.7,0.1,1.2,0.8,1.2,1.3c0,0.5-0.4,1.1-1,1.3
		c-0.7,0.3-2.4,0.1-2.9,0.2c-0.4,0-0.8,0.5-0.9,0.9c-0.1,0.4,0.5,0.9,0.8,1.1c0.3,0.2,0.9,0.5,0.7,1c-0.2,0.5-1.4,0.9-2.3,0.7
		c-0.9-0.2-3.2-0.8-3.5-0.2c-0.2,0.5,0.3,0.4,0.3,1.5s-0.9,1-1.2,0.9c-0.2-0.1-4.1-0.8-5.3-1c0.8-0.6,1.1-3.8,2.1-4.5
		c0.5-0.3,0.7,0,0.9,0.4c0.2,0.4,0.6,0.7,0.9,0.5c0.3-0.2,0.3-0.7,0.1-2.4c-0.2-1.6,0.2-2,0.8-2.1c0.6-0.1,0.5,0.9,0.7,1.2
		C29,51.3,29.5,51.5,29.7,51.5 M43.5,38.2c0-3.8-0.3-7.5-0.9-11H0.9C0.3,30.7,0,34.4,0,38.2c0,21.1,9.7,38.2,21.8,38.2
		C33.8,76.5,43.5,59.4,43.5,38.2"/>
	<path class="st0" d="M15.8,14.3L15.8,14.3L15.8,14.3L15.8,14.3L15.8,14.3z M15.6,13.9c0,0,0.1,0,0.1,0L15.6,13.9L15.6,13.9z
		 M16.5,14.7L16.5,14.7l0-0.1h0V14.7z M16.8,15.2C16.8,15.1,16.8,15.1,16.8,15.2C16.9,15.2,16.8,15.2,16.8,15.2 M16.9,15.3v0.1
		C16.9,15.4,16.8,15.3,16.9,15.3 M18.9,15.8C18.9,15.8,19,15.8,18.9,15.8c0.1,0.1,0.1,0.1,0.2,0.2c0,0,0,0-0.1,0
		C19,15.9,19,15.9,18.9,15.8C19,15.8,18.9,15.8,18.9,15.8 M19.8,15L19.8,15L19.8,15z M18.3,12.3C18.3,12.3,18.4,12.3,18.3,12.3
		l0.1,0.2L18.3,12.3z M18.3,12.7L18.3,12.7L18.3,12.7C18.3,12.8,18.3,12.8,18.3,12.7 M18.2,12.3L18.2,12.3L18.2,12.3L18.2,12.3
		L18.2,12.3z M17.9,11.8c0.1-0.1,0.2,0,0.2,0.1c0,0,0,0,0-0.1c-0.1,0,0,0.1,0,0.1l-0.1,0V11.8L17.9,11.8z M17.9,12.3
		c0.1,0,0.1,0.1,0.2,0.2c0,0-0.1,0-0.1,0C17.9,12.4,18,12.3,17.9,12.3 M18.2,12.9C18.2,12.9,18.2,12.9,18.2,12.9
		C18.2,12.8,18.1,12.8,18.2,12.9l0-0.2l-0.1-0.1C18.1,12.6,18.2,12.7,18.2,12.9L18.2,12.9c0.1,0,0.1,0,0.1,0h0l0,0
		c0,0,0,0.1,0.1,0.2L18.2,13c0,0,0-0.1,0.1-0.1l0,0H18.2z M18.5,12.8L18.5,12.8c0,0.1,0.2,0.1,0,0.2L18.5,12.8
		C18.4,12.8,18.4,12.8,18.5,12.8 M18.5,12.5L18.5,12.5L18.5,12.5L18.5,12.5L18.5,12.5z M18.4,12.2L18.4,12.2L18.4,12.2L18.4,12.2z
		 M18.9,13.2l0.1-0.1c0,0,0,0.1,0,0.1C19,13.3,18.9,13.4,18.9,13.2C18.9,13.3,18.9,13.3,18.9,13.2C18.9,13.2,18.9,13.2,18.9,13.2
		 M19,13.4C19,13.5,19,13.5,19,13.4L19,13.4C19,13.4,19.1,13.4,19,13.4L19,13.4C19.1,13.4,19.1,13.4,19,13.4L19,13.4z M19.3,13.7
		L19.3,13.7L19.3,13.7L19.3,13.7z M19.4,13.7C19.4,13.7,19.4,13.7,19.4,13.7C19.3,13.7,19.3,13.6,19.4,13.7c-0.1,0-0.1,0.1-0.2,0
		L19,13.6l0.2,0.1l0,0c-0.1-0.1,0.1,0,0-0.1l0.1-0.1l0,0.1C19.3,13.6,19.3,13.6,19.4,13.7C19.4,13.7,19.4,13.7,19.4,13.7
		C19.4,13.7,19.4,13.7,19.4,13.7C19.4,13.7,19.4,13.7,19.4,13.7C19.4,13.7,19.4,13.7,19.4,13.7C19.4,13.7,19.4,13.7,19.4,13.7
		 M19.6,13.8L19.6,13.8C19.6,13.9,19.6,13.9,19.6,13.8L19.6,13.8z M19.5,13.8c0.1-0.2-0.2-0.4,0.1-0.4c0,0.1,0,0.1,0.1,0.3
		C19.5,13.7,19.6,13.7,19.5,13.8 M19.8,14l0,0.1L19.8,14L19.8,14L19.8,14L19.8,14L19.8,14z M19.8,14.6L19.8,14.6
		C19.8,14.6,19.8,14.6,19.8,14.6 M19.8,14.3c0.1,0,0.2,0.1,0.2,0.1h-0.1C19.9,14.4,19.9,14.3,19.8,14.3 M20.1,14.6L20.1,14.6
		L20.1,14.6z M20.3,14.9L20.3,14.9l-0.1,0C20.2,14.9,20.3,14.9,20.3,14.9 M20.9,9.5C20.8,9.5,20.8,9.5,20.9,9.5
		c-0.1-0.1-0.1-0.1,0-0.2c0,0,0-0.1,0-0.1l0.1-0.1l0.1,0.1l0,0c0,0,0,0,0,0l0,0c0,0.1,0,0.1-0.1,0.1c0,0,0,0,0,0
		C20.8,9.4,20.8,9.4,20.9,9.5C20.9,9.5,21,9.4,20.9,9.5 M17.5,9.2c-0.1,0-0.1,0.1-0.1,0.1V9.2L17.5,9.2l-0.1-0.1
		C17.5,9.2,17.6,9.2,17.5,9.2 M17.7,9.1l-0.1,0c0.1-0.2-0.1-0.1,0-0.2c0,0,0,0.1,0.1,0.1l0,0l0,0l0,0V9.1C17.7,9.1,17.7,9,17.7,9.1
		 M17.8,8.6l-0.1-0.2C17.8,8.4,17.9,8.5,17.8,8.6 M18.1,7.3c0,0.1,0.1,0.1,0.1,0.1c0,0,0,0.1,0,0.1c0,0,0-0.1,0-0.1
		C18.1,7.4,18,7.4,18.1,7.3 M18.2,8.3L18.2,8.3L18.2,8.3L18.2,8.3z M18.3,7.4L18.3,7.4l0-0.1L18.3,7.4L18.3,7.4L18.3,7.4z M18,8.8
		L18,8.8l-0.1-0.2C18,8.7,18,8.8,18,8.8 M18.1,8.6v0.2C18,8.8,18,8.6,18.1,8.6 M18,8.3c-0.1-0.1,0-0.1,0-0.2c0.1-0.1,0.1,0,0.2-0.1
		l0-0.1c0,0,0,0,0,0.1l0,0.2c0,0,0,0-0.1,0C18.1,8.3,18.1,8.2,18,8.3 M18.1,8.5L18.1,8.5c0.1,0,0.1,0,0.2,0.1c0,0,0,0-0.1,0
		C18.3,8.6,18.1,8.7,18.1,8.5 M18.3,8.5L18.3,8.5L18.3,8.5L18.3,8.5c0-0.1,0-0.1,0-0.1l0-0.1c0.1,0,0,0.1,0,0.1
		C18.3,8.4,18.4,8.5,18.3,8.5 M18.4,7.8L18.4,7.8L18.4,7.8z M15.3,9.4l0-0.1L15.3,9.4z M10.4,10c0.4,0,0.7-0.1,1.1-0.1
		c0.2,0.1,0.3-0.1,0.5,0c-0.1,0.1,0.1,0,0.1,0.1c0-0.1,0.2,0,0.2-0.1c0.1,0.1,0.2-0.1,0.3,0c0.1,0,0.1,0,0.3,0c0.1,0.2,0.2,0,0.3,0
		l0,0.1c0.2,0.2,0.3-0.4,0.5-0.1V9.8l0.1,0.1c0,0-0.1,0-0.1,0c0,0.1,0.2,0,0.2,0c0-0.1-0.1-0.1-0.1-0.1l0-0.1
		c-0.2,0-0.1-0.3-0.1-0.4c-0.1,0.1-0.1-0.2-0.1-0.2c-0.1,0,0-0.2-0.1-0.2c-0.1-0.1-0.1-0.1-0.1-0.2c-0.1-0.1-0.2-0.1-0.2-0.2
		c-0.1-0.1,0.1-0.2-0.1-0.3c-0.1,0.1,0,0.1,0,0.1h-0.1v0.1c-0.1-0.1-0.2-0.2-0.2-0.3c0,0,0.1,0,0.1,0c0,0,0-0.1,0-0.1L12.7,8
		c0,0.1-0.1,0.1-0.1,0.1c-0.2-0.2,0-0.6-0.4-0.7c0,0,0-0.1,0-0.1c-0.1-0.1-0.1,0.1-0.2,0c0-0.1,0.1-0.1,0.2-0.2l0.7-0.3
		c0.1,0.1-0.3,0.3,0,0.3c0.1-0.1-0.1-0.4,0.2-0.3l0.1-0.1l0.1,0.2c0.1-0.1,0.1-0.1,0.1-0.2h0c0,0,0.1-0.1,0.1-0.1c0,0,0,0-0.1,0
		c0,0,0,0,0,0l0.2-0.1c0,0.1,0,0.1,0,0.3c0,0.1,0.1-0.1,0.1,0l0,0c0.1,0.2-0.2,0.3,0,0.4c0,0,0,0,0.1,0c0,0.1-0.1,0.1,0,0.1
		c0.1,0,0-0.1,0.1-0.2l0,0.1c0.1,0,0-0.1,0.1-0.2c0,0,0,0,0.1,0l-0.1-0.1c0,0,0.1,0,0.1-0.1l-0.1-0.1l0,0V6.7c0,0,0.1,0.1,0.1,0
		c-0.1,0,0,0.1,0,0.1l0,0L14,6.7c0,0.1-0.1,0.1,0,0.2H14L14,7c0.1,0,0,0.1,0,0.1c0,0-0.1,0-0.1,0.1c0,0.1,0,0.1,0.1,0.2
		c0.1-0.1,0.1-0.2,0.2-0.2c0,0.1,0,0.2,0.1,0.1c0.1-0.1,0-0.1,0-0.2h0.1c0,0.1-0.1,0.1,0,0.2c0,0,0,0,0,0h0.1v0l0.1,0
		c-0.1,0.1,0,0.1,0,0.1l0-0.1v0.2c-0.1,0-0.2-0.2-0.2-0.1c0,0,0,0,0,0.1h0.1c0,0-0.1,0-0.1,0.1c0.1,0.1,0.2,0.2,0.2,0.3
		c0,0-0.1-0.1-0.1-0.1l0,0l0.1,0.1l0,0c0,0.1,0.1,0,0.1,0.1l0,0c-0.2,0,0-0.2,0-0.2c0,0.1,0.1,0,0.1,0.2h0c0.1-0.1,0-0.2,0-0.2
		c0,0,0.1,0.1,0.1,0.2c0,0,0,0,0,0c0,0,0,0,0,0c0,0,0,0,0,0c0,0,0,0,0,0c0,0,0,0.1,0,0.1h-0.1c0,0.1,0.1,0.2,0.1,0.3l-0.1-0.1
		c-0.1,0-0.1,0.1,0,0.1c0,0,0,0-0.1,0l0,0l0.1,0.1l0,0l0,0l0,0c0,0,0,0.1,0,0.1l0.1,0.1l0,0c0,0,0-0.1-0.1-0.1
		c-0.1,0-0.1,0.1-0.1,0.2c0,0.1,0.1-0.1,0.1,0.1c0.1,0,0.2-0.1,0.3-0.1c0-0.1,0-0.2-0.1-0.2c0.1,0.1,0.2,0,0.2,0v0h0v0h0
		c0,0,0,0,0,0h0l0,0c0,0.1,0.1,0.1,0.1,0.1c0,0,0,0,0,0c0-0.1-0.1,0-0.1,0v0.1c0-0.1,0.1,0,0.2,0v0.2c0-0.1-0.1-0.1-0.2-0.1
		c0,0,0,0.1,0,0.1c0.1,0,0,0,0.1,0.1h-0.1c0,0,0-0.1,0-0.1c0,0-0.1,0.1-0.1,0.1c0,0,0-0.1,0-0.1c-0.1,0-0.1,0.1-0.1,0.1l0.2,0h0v0.1
		h0c0,0,0,0,0-0.1h0C15,9,15.2,9,15.2,9.1l0-0.1c0,0,0,0.1,0,0.1c0,0-0.1,0-0.1,0c-0.1,0,0,0.1,0,0.1l0,0c0,0-0.1,0.1,0,0.1
		l-0.1-0.2c0,0.1-0.1,0.2,0.1,0.3l0.1-0.1c0,0.1,0,0.1,0.1,0.2c0.1,0,0-0.1,0.1-0.1l0,0.1h0c-0.1,0.2,0.2,0,0.2,0.2l0.1-0.1v0.1
		c0,0-0.1,0-0.1,0c0.1,0,0.1,0.1,0.2,0c0,0,0.1-0.1,0.1-0.1l0,0C16,9.8,15.8,10,16,10l0.1-0.1c-0.1,0,0-0.1-0.1-0.1
		c-0.1-0.1,0-0.2,0-0.4c0,0-0.1,0-0.1,0.1l0,0.1c-0.1,0,0-0.2-0.1-0.3l0.1-0.1l0-0.1c0,0,0,0,0,0c0,0,0,0,0,0.1c0,0,0,0.1,0.1,0.1
		l0,0l0,0.1l-0.1,0c0,0,0.1,0.1,0.2,0.1V9.3c0.2,0.1,0,0.1,0,0.2l0,0c0,0,0,0,0,0l0,0c-0.1,0,0,0.1,0,0.1l0,0c-0.1,0,0,0.1,0,0.1
		c0,0,0,0-0.1,0v0.1c0.1,0.1,0-0.1,0.1-0.1l0,0l0,0l0.1-0.1l0,0c0-0.1,0.1,0,0.1-0.1c-0.2,0,0-0.1,0-0.3l0,0c0,0,0-0.1,0-0.1
		c0-0.1-0.1,0-0.1,0v0.1c0,0,0,0-0.1,0c0-0.1,0.1-0.2,0.1-0.3l0.1,0c0,0,0-0.2,0.1-0.2c0,0,0,0-0.1,0c0-0.1,0-0.1,0.1-0.1l0.1,0.1
		c0,0,0-0.1,0-0.1h-0.1c0,0,0-0.1,0-0.2l-0.1-0.1l0,0c-0.1,0.1,0.2,0,0.1,0.1c0,0,0,0,0.1,0c0,0,0-0.1,0-0.2c0,0,0,0,0,0.1
		c0-0.1,0.2-0.2,0-0.4c0,0,0,0.1,0,0.1c0,0-0.1-0.1-0.1,0h0V7.9h0v0c0.1,0.1,0-0.1,0.1,0c0-0.1,0.2-0.3,0.1-0.4c0-0.1,0-0.1,0-0.2
		l0.1,0.1c0.2-0.1,0-0.1,0-0.2l0,0V7.1c0,0,0.1,0,0.1-0.1l-0.1-0.2c0,0,0.1,0,0.1,0c0,0,0-0.1,0-0.1c0,0,0,0,0.1,0c0,0,0,0,0-0.1
		c0.1,0-0.1,0.1,0,0.1c0.1-0.1,0.1-0.1,0-0.2c0.1-0.1,0.2-0.3,0.2-0.5c0,0-0.1,0-0.1,0c0-0.1,0-0.1,0.1-0.2l-0.1,0c0,0,0,0,0.1,0
		c0,0,0,0,0,0c0,0-0.1,0-0.1,0L17.3,6c0,0,0,0,0,0v0.1c0,0,0.2,0,0.2-0.1l0,0l0,0l0,0l0,0c0.1-0.1-0.1-0.2,0-0.3l-0.1,0
		c0,0.1,0-0.1-0.1,0v0h-0.1c0,0,0,0,0-0.1h0.1c0-0.1,0.1-0.1,0-0.2c0,0,0,0,0,0c0,0,0,0,0,0c0,0,0.1,0,0.1,0c0.1,0,0-0.2,0.1-0.2v0
		l0.3,0.1l0,0c0,0,0,0.1,0.1,0.1l0-0.2c0.1,0.2,0.2-0.1,0.3,0.1c-0.1,0,0,0.1,0,0.1l0.1,0c0,0.1,0,0.2,0,0.2c0,0,0,0,0.1,0l0-0.3
		l0.2,0.1c-0.1,0-0.1,0.1-0.1,0.2l0,0c0.1-0.1,0.1-0.2,0.2-0.2v0c0,0.1,0.1-0.1,0.1,0c-0.1,0.1,0.1,0.1,0,0.2l0-0.1h0v0.2h0V5.7
		c-0.2-0.1,0,0.2-0.2,0.2l0,0.2c0.1-0.1,0.1-0.1,0.2,0l-0.1,0.3c0-0.1-0.1-0.1-0.1-0.1c0,0.1-0.1,0-0.1,0c0,0-0.1,0-0.1,0.1
		c0,0,0,0,0,0.1l-0.1,0.1c0.1,0.1,0.1,0.1,0.2,0c0,0.1,0.1,0.1,0,0.1l-0.1,0c0,0,0,0.1,0,0.1c0,0-0.1,0-0.2,0.1c0,0,0.1,0,0.1,0
		c0,0,0,0,0,0c0,0,0,0,0,0c0,0,0,0,0,0l0,0l0.1-0.1c0,0,0,0,0-0.1L18.7,7c0,0-0.1,0-0.1,0.1l0,0c0,0,0,0,0,0c0,0.1,0.1,0,0.1,0.1
		c-0.1,0.1-0.2-0.1-0.2,0.1c-0.1-0.1,0,0,0-0.1c0,0,0.1,0,0.1,0l0,0c0,0,0,0,0,0c0,0-0.1,0-0.1,0l0,0l0,0c-0.1,0-0.1,0-0.2,0.1
		c0,0,0,0,0,0c0,0,0,0.1-0.1,0.1l0-0.1l0,0c0,0,0,0,0,0c0,0,0,0,0,0c0.1-0.1,0-0.2,0-0.3c-0.1,0-0.2,0.1-0.2,0.2l0,0l-0.1,0
		c-0.1,0,0.1,0.1-0.1,0.1v0.1c0,0,0,0-0.1,0C18,7.2,18,7.1,18,7c0,0,0-0.1,0-0.1c0,0.1-0.1,0.3-0.1,0.4l0.1,0c0,0.1,0,0.2-0.1,0.3
		c0.1,0.1,0,0.1,0.1,0.2l0,0c0,0,0.1-0.1,0-0.1l0,0.1l0.1,0c0,0.1-0.1,0.1-0.1,0.2V7.7c0,0,0,0,0,0l0,0c0,0,0,0,0,0l0,0
		c0,0,0,0.1-0.1,0.1L18,7.9L17.8,8c0,0,0-0.1-0.1-0.1c-0.2,0.1,0,0.2-0.1,0.3l0.1,0.1l0,0c-0.1,0,0-0.3-0.1-0.2c0,0.1,0-0.1-0.1-0.1
		c0,0,0-0.1,0-0.1c0,0,0.1,0,0.1,0c0,0,0,0-0.1-0.1c0,0-0.1,0-0.2,0c0,0.1-0.2,0.2,0,0.2c0,0-0.1,0-0.1,0l0.1,0.1c0,0-0.1,0-0.1,0
		c0,0,0,0.1,0,0.1c0,0,0.1,0,0.1,0l0.1-0.1c0.1,0,0.1,0.1,0.1,0.1v0.1l0,0l0,0.1V8.4l-0.2,0.1c0,0,0,0,0-0.1c0,0,0,0-0.1,0
		c-0.1,0,0,0.1,0,0.2c0-0.1,0.1,0.2,0.1,0c0,0,0,0,0,0v0c0,0,0,0.1,0,0.1l0.1-0.1l0,0c0,0,0,0,0,0c0,0,0.1,0,0.1,0l0-0.1
		c0,0,0,0.1,0,0.1c0,0.1-0.1,0-0.1,0c0,0,0,0,0,0c0.1,0.3-0.2,0.3-0.2,0.4c0,0,0,0.1,0,0.1c0-0.1,0-0.1,0-0.1c0,0,0,0,0,0l0,0
		c0-0.1,0.1-0.1,0-0.2c-0.2,0.1,0.1,0.3-0.2,0.4c0,0.1,0.1,0.1,0.1,0.2h-0.1V9.3h-0.1c0,0.1,0.1,0.1,0.2,0.2l0,0l0.1,0.4
		c0.2,0-0.1-0.3,0.2-0.2c0,0,0.1-0.1,0-0.1l0-0.1c0,0,0,0,0,0.1h0.1c0,0,0,0,0,0.1l0,0c0.1-0.1,0.1-0.2,0.1-0.2l-0.1,0
		c0,0,0.1,0,0.1-0.1c0,0-0.1,0-0.2-0.1c0.1-0.1,0.2,0,0.2,0.1v0c0,0,0.1,0,0.1-0.1C18,9.1,18,9,18,8.9c0.1,0,0.2,0.2,0.2,0
		c-0.1,0,0,0,0-0.1V8.8c0,0,0.2,0,0.1,0.1c0,0,0,0,0.1,0c0.1,0,0.2,0,0.3-0.1l0,0c0.1-0.1,0.2-0.1,0.2-0.2l0.1,0.1
		c0.1,0,0.2-0.1,0.2-0.2c0,0,0,0,0,0c0,0,0,0,0,0c0,0,0,0,0,0l0.1-0.1c0,0,0,0,0,0.1l0.1,0.1c0.1,0,0.1-0.1,0.1-0.1
		c0,0-0.1,0-0.1-0.1l0,0l0,0c0.1,0.1,0.1-0.1,0.2-0.1c0,0,0,0,0,0.1c0,0,0.1-0.1,0-0.1c0,0,0,0,0,0.1c0,0,0,0,0,0l0,0
		c0.1,0,0.1-0.1,0-0.1c0.1-0.1,0.2,0,0.3-0.1l0,0L20,8c0,0,0,0.1,0,0.1c0,0,0,0,0.1-0.1c0-0.2-0.1-0.2,0-0.3l0,0.1c0,0,0.1,0,0.1,0
		l0.1,0c-0.1-0.1,0-0.1-0.1-0.2c0.1,0,0.1,0.1,0.1,0l0,0.2h0.1V7.6l0.1,0.1c0-0.1,0.1-0.2,0.1-0.1c0.1,0.1,0.1-0.1,0.2-0.1V7.3l0,0
		l0.1-0.1c0,0,0,0,0,0.1c0.1-0.1,0.1-0.1,0.2-0.1c0.2,0.1,0.1,0.3,0.3,0.2c0,0.2,0.2-0.1,0.1,0.1c0.1,0.1,0.1,0,0.1,0.1l0,0
		c0.1-0.1-0.1,0.4,0.1,0.1c0,0.1,0,0.2,0,0.2L22,8.2c-0.1,0-0.1,0.1-0.2,0.2c0,0,0.1,0,0.1,0c0,0,0-0.1,0-0.1c0,0.1,0.1,0.1,0.1,0.2
		l-0.2,0c0,0.1,0,0-0.1,0c-0.1,0-0.1,0.2-0.1,0.3c-0.1-0.1-0.1,0.1-0.2,0c0,0.2-0.1,0.3-0.2,0.4l0,0l-0.1,0c0-0.1,0.3-0.1,0.1-0.2
		L21.2,9l0,0l0,0l0,0l0,0l0.1-0.1l-0.1-0.1c-0.1,0-0.1,0.1,0,0.1V9h0c0,0,0,0,0-0.1C21,9,21,9.1,21,9.1c0.1-0.1,0.1,0,0.1,0.1
		L21,9.1l0,0l-0.1-0.1c0,0.1-0.1,0-0.1,0c0-0.1,0.1-0.1,0.1-0.2h-0.1c0,0,0-0.1,0-0.1c-0.1,0.1,0,0.2-0.1,0.3l-0.1-0.1
		c-0.1,0,0,0.1,0,0.1c0,0-0.1,0-0.1,0.1c0,0,0,0,0,0c0.1-0.1,0-0.1,0.1,0l-0.1,0l0.1,0.1l-0.2,0c0,0.1,0,0.1,0,0.1
		c0.1-0.1,0.1,0,0.2,0c0,0-0.1,0-0.1,0.1l-0.1-0.1c0,0.1-0.1,0.1-0.1,0.2l0,0.1V9.8c-0.2-0.1-0.1,0.2-0.2,0.2l-0.1-0.1
		c-0.1,0.1-0.1,0.1-0.1,0.2c-0.1,0,0.1-0.1,0-0.1c-0.1,0.1,0-0.1-0.2-0.1c0,0.1-0.1,0.2-0.1,0.3c0.1,0.1,0.1,0,0.1,0.1l0.1-0.1
		c0.1,0.1,0.1,0,0.2,0c0,0.2,0.1,0,0.2,0.2c0,0,0.2,0,0.4,0c0,0.1,0.2,0.1,0.3,0.1l0-0.1c0,0.2,0.2,0.1,0.2,0.1c0,0,0,0.1,0.1,0.1
		c0.1-0.2,0.1,0.1,0.2,0.1c0,0,0.1-0.1,0.2-0.1c0,0,0,0.1,0.1,0.1c0-0.1,0,0.1,0.1,0c0.2,0,0.2,0,0.3,0l0,0c-0.1,0.1,0,0.2,0.1,0.3
		l0.1-0.1c0-0.1-0.1,0-0.1-0.1h0.2c0,0,0,0-0.1,0c0.1,0.1,0.3,0,0.3,0.2c0.1,0,0.2,0,0.2,0.1c0,0,0-0.1,0-0.1h0.1l0,0.1
		c0.1,0,0.2,0,0.3,0l-0.1,0l0.1,0.1l-0.1,0.1c0,0,0,0,0.1,0l0-0.1l0.1,0.1l0,0l-0.1-0.1c0-0.1,0.1,0.1,0.1,0c0.1,0-0.1,0.2,0.1,0.2
		v-0.1c0.1,0,0.1,0.1,0.2,0.2l0,0c0,0,0,0,0,0l0,0c-0.1,0.1,0.2,0.2,0,0.3c0.1,0.1,0,0.1,0,0.2h0l0,0.3c0,0,0,0-0.1,0
		c0,0.1,0,0.2,0.1,0.2c0,0.1,0-0.1-0.1,0l0,0.2c0-0.1-0.1-0.1-0.2-0.1l0,0l-0.1,0h0c0,0,0-0.2-0.1-0.2l-0.1,0.1c0.1,0,0.1,0.1,0,0.2
		c-0.1,0-0.1,0-0.1,0.1h0.1c0,0.1-0.1-0.1-0.1,0.1l-0.1-0.3L23,12.6c0,0,0,0,0,0l0,0c0,0-0.1-0.1,0-0.2c-0.1,0-0.1,0.1-0.1,0.2
		c-0.1,0.1,0.1,0,0.1,0.2h-0.2v0h-0.1c0.1-0.1,0.1-0.2,0.1-0.4c-0.1,0-0.1,0-0.2-0.1c-0.2,0.1,0,0.2-0.1,0.4c-0.1-0.2-0.3,0.1-0.4,0
		h-0.1l0,0c-0.1,0-0.1-0.2-0.2-0.2l-0.1,0c0,0,0,0,0.1,0l0.1,0l0,0c0,0,0,0,0-0.1c0,0,0,0,0,0c0,0,0,0,0,0c0,0,0.1,0,0.1,0
		c0,0,0,0,0,0l0,0c0,0,0,0,0,0c0.1,0,0.1,0,0.2,0c0-0.1,0-0.1-0.1-0.2c0,0.1-0.1,0.1-0.1,0.1c0,0,0-0.1,0-0.1l0,0
		C22,12,22.3,12,22.1,12l0,0.1c0-0.1,0-0.2-0.1-0.1c0,0.1,0,0.2,0.1,0.2c0,0.1-0.1,0.2-0.1,0.1c0,0,0,0.1,0,0.1c0,0,0,0,0,0l0,0
		c0,0,0,0,0,0c-0.1,0-0.1,0-0.2,0l0.1,0l-0.1-0.1l0.1,0L21.6,12l0,0c0,0,0,0,0,0l0,0c0,0,0,0,0,0c0-0.1-0.1-0.1-0.1-0.1
		c-0.1,0,0,0.1-0.1,0.1c0-0.1,0.1-0.1,0.1-0.2l0,0l0,0c0,0,0,0.1,0,0l0,0c0,0,0-0.1,0-0.1c0.1,0,0-0.1,0-0.1l-0.1-0.1
		c0,0.1,0.1,0.2,0,0.3l0,0c-0.1,0.1,0,0.2,0.1,0.3c0,0,0,0,0,0l0,0c0,0,0,0,0,0c0,0-0.1,0-0.1,0l0,0c0-0.1-0.1,0-0.1,0
		c0,0,0,0.1,0,0.1h-0.1l0-0.1L21,12l0-0.1c0,0,0,0-0.1,0.1v-0.3c-0.1,0-0.1,0.1-0.2,0.1l0,0l0,0c0,0,0,0,0,0l0-0.2l-0.1,0.1
		c-0.1,0-0.1-0.2-0.1-0.1c0.1,0.1,0,0.2,0.1,0.2c0,0,0,0,0,0c0,0,0,0,0,0c0,0,0,0,0,0c0,0,0,0,0,0.1h-0.1c0,0,0.1,0,0.1-0.1
		c0,0,0,0,0,0c-0.1-0.1-0.2,0.2-0.3,0h0c0-0.1,0-0.1,0-0.2l0.1,0.1c0.1-0.1,0-0.1,0-0.2h0v0.1l-0.1-0.1l-0.1,0.1l0,0
		c0,0-0.1,0.1-0.2,0.1c0-0.1,0.2,0,0.2-0.1c-0.1,0-0.1-0.1-0.2,0l0,0c-0.1-0.1-0.2,0.1-0.3-0.1c0,0-0.1,0.1-0.1,0.1
		c0.1,0.1,0.1,0,0.1,0.1c-0.1,0-0.3,0-0.3-0.1c0,0,0-0.1-0.1-0.1c0,0-0.1,0-0.1,0.1l0,0h0c0-0.1,0-0.1,0-0.1c0,0,0,0.2-0.1,0.1
		c0.1-0.1-0.1-0.2-0.1-0.3l0,0.2c0-0.1-0.2,0-0.3-0.2c-0.1,0,0,0.1-0.1,0.1l-0.1,0c0.1,0,0.1,0,0.1-0.1c-0.2-0.1-0.1,0.2-0.3,0.1
		c0-0.1,0-0.1-0.1-0.1c0,0.1-0.2-0.1-0.1,0.1l0.1,0l0.1-0.1l0,0.1l-0.1,0.1l-0.1-0.1c0,0.1-0.1,0.1-0.1,0.2c0,0,0,0,0,0c0,0,0,0,0,0
		c0,0,0,0,0,0.1h0v-0.1c0,0,0,0,0,0c0,0,0,0,0,0c-0.1,0,0.1-0.1-0.1-0.1c-0.1,0,0,0.1,0,0.1c0,0,0,0,0,0.1c0,0,0,0,0,0.1
		c0,0,0,0,0-0.1c0,0,0,0,0-0.1c0,0,0,0,0,0c-0.1,0,0,0.1-0.1,0.2l0-0.1c-0.1,0.1,0,0.3-0.1,0.5c0,0,0,0,0.1,0l0,0.1
		c0,0.1-0.1,0.4,0.1,0.5c0,0,0,0,0,0c0,0,0.1,0,0.1,0c0,0.1-0.1,0-0.1,0.1v0.1c0,0-0.1,0-0.1,0c0,0,0,0,0,0.1c0.1,0,0.2,0.1,0.2,0v0
		h0c0,0,0,0,0-0.1c0,0,0.1,0,0.1,0l-0.1,0l0,0c0,0,0,0.1,0,0.1h0.1c0,0,0,0.1,0,0.1l0.1,0.1c0,0,0-0.1,0-0.1c0,0,0,0.1,0.1,0.1l0,0
		l0,0c0,0,0,0.1,0,0.1h0.1c0,0,0,0.1,0,0.1c0,0,0.1,0,0-0.1v-0.1c0.1,0,0,0.1,0.1,0.1c0.1,0,0,0,0.1,0l-0.1,0.1c0,0,0,0,0-0.1
		c-0.1,0.1,0.1,0.1,0,0.2c0.1,0,0.1,0.1,0.2,0l-0.1-0.1c0-0.1,0,0,0.1,0l0,0.1c0.1,0,0.2,0,0.2-0.1c0,0,0-0.1,0-0.1c0,0,0,0,0-0.1
		c0,0,0,0,0,0l-0.1,0.1c-0.2,0-0.1-0.2-0.1-0.3c0.2-0.1,0.2,0.1,0.2,0.2c0,0,0,0.1,0,0.1c0,0,0,0,0,0c0,0,0,0.1,0,0.1H19l-0.1,0.1
		c0.1,0.1,0.1,0.1,0.1,0.2l-0.1,0.1l0.1,0.1v-0.1l0.2,0.1c0,0,0.1,0,0.1,0l0,0.1l-0.1,0c0,0.1-0.1,0.2,0,0.2l0.1-0.1
		c0,0,0,0.1,0,0.1c0,0,0.1-0.1,0-0.1c0,0,0,0.1,0.1,0.2l0.1-0.1c-0.1,0,0-0.2-0.1-0.1l0-0.1c0.2,0.1-0.1,0.2,0.1,0.2
		c0,0.1-0.2,0.1,0,0.2c0.1,0-0.2-0.1-0.1,0.1c0.1,0,0,0.1,0.1,0.1c0.1,0.1,0.1,0.1,0.2,0.2l0.1-0.1c-0.2,0,0.1-0.1-0.1-0.2l-0.1,0.2
		c0,0,0-0.1,0-0.1l0.1,0l-0.1-0.1c0.1,0,0.2-0.1,0.2,0c0.1,0.1-0.1,0.2,0,0.4c-0.1,0.1,0.1,0.1,0.1,0.2c0.2,0,0-0.2,0.1-0.2h0.1
		c0,0-0.1,0.1-0.1,0.1c0.1,0.1,0.1,0,0.2,0v0c0,0,0,0,0,0l0,0v0c-0.1,0,0,0.1-0.1,0l0,0.1c-0.1,0-0.2,0-0.3-0.2
		c-0.1,0-0.2,0.1-0.1,0.2l0.1,0c0,0.1,0,0.2,0,0.2c0.1,0,0.2,0.1,0.2-0.1l0,0.1c0.1-0.1,0.1-0.1,0.1,0c0,0.1,0,0.3,0.1,0.2
		c0,0,0,0.1,0,0.1l0.1,0.1l0.1-0.1c0.2,0.1-0.2,0.3,0.1,0.4c0.2-0.1-0.1-0.1,0-0.2c0.1-0.2-0.1-0.3,0-0.4v-0.1c0,0,0,0.1,0.1,0.1
		c0-0.1,0.2-0.2,0-0.3c0,0-0.1,0.1,0,0.1c-0.1,0.1-0.2-0.1-0.2,0.1h-0.1v-0.2h0.2c0,0,0,0.1,0,0.1l0.1-0.1c0.1,0,0,0.1,0.1,0.2
		c0-0.1-0.1,0-0.1,0.1c0,0.1,0,0.2,0.1,0.2c0,0,0,0.1,0,0.1c-0.1,0.1-0.1,0.2-0.1,0.3c0-0.1,0.1-0.1,0.2-0.2c0,0,0,0,0.1-0.1
		c0,0,0,0-0.1,0.1c0,0.1-0.1,0.2,0,0.2c0,0,0-0.1,0-0.1l0.1,0.1c0.1,0-0.1-0.1,0-0.1c0.1,0.1,0.1-0.2,0.2,0.1c0,0,0,0-0.1,0
		c0,0,0,0.1,0,0.1c0,0.1,0,0,0.1,0.1c0,0-0.1-0.1-0.2,0V16h0.1c0,0.2-0.2,0.2-0.3,0.3c0,0,0.1,0.1,0.1,0.1c-0.1,0.2-0.2-0.1-0.2-0.1
		l-0.1,0.2c0,0.1-0.1-0.1-0.1,0c-0.1,0,0,0.1-0.1,0.2c-0.1,0-0.1,0-0.2,0.1c-0.1-0.1-0.1-0.2-0.2-0.1c0,0,0,0,0-0.1c0,0,0,0.1,0,0.1
		c0.1,0,0.1,0,0.1,0.1h-0.1c-0.1,0,0.1-0.2-0.1-0.2c0.1-0.1-0.1-0.1-0.1-0.2c0,0.1-0.2,0-0.1,0.1c0,0,0,0,0,0.1c0,0,0,0,0-0.1
		c-0.1-0.1-0.3-0.1-0.3-0.3c0,0,0.2,0,0.2,0.2c0-0.1,0-0.1,0.1-0.2l-0.1-0.2c0,0,0,0,0,0.1c0,0,0,0,0,0l0,0c0,0,0,0.1,0,0.1L19,16.1
		l0.1,0c0,0,0,0,0,0c-0.1-0.1,0-0.3-0.2-0.2c-0.1-0.2-0.2-0.4-0.3-0.4h-0.1v0.1c0,0-0.2-0.1-0.2-0.2c0.1,0,0-0.1,0.1-0.1l0,0
		l-0.1,0.1c0.1-0.1,0.1-0.1,0.1-0.2c0,0,0,0,0,0c0,0,0,0,0-0.1l-0.1-0.1c-0.1,0,0,0.2-0.1,0.2c-0.1,0,0.1-0.2-0.1-0.2
		c0,0.1-0.1,0-0.2,0c0-0.1,0-0.2-0.1-0.2l0,0c-0.1-0.2-0.3-0.1-0.3-0.3c0.1-0.1-0.1-0.1-0.1-0.1l-0.1,0.1c0,0,0-0.1,0-0.1l-0.1,0
		c0,0,0,0,0,0l0,0c0,0,0-0.1,0.1-0.1c-0.2,0.1-0.3-0.1-0.5-0.2l0,0c0,0.1,0-0.1-0.1-0.1l0,0.2c0-0.1,0-0.1-0.1-0.3
		c-0.1,0-0.1,0.1-0.1,0.2c-0.1,0-0.1,0.2-0.2,0.1c0,0,0,0,0,0c0,0,0,0.1,0,0.1c0.1,0,0.2-0.1,0.2-0.1c0,0.1,0.1,0.2,0.1,0.3
		c0,0-0.1,0-0.1-0.1l0,0c0.2,0.1,0.1,0.1,0.1,0.2c0,0,0,0,0,0l0,0c0,0,0,0.1,0.1,0.1l0-0.1c0,0.1,0,0.2-0.1,0.3
		c-0.1-0.1-0.1-0.2,0-0.3c0,0,0,0,0,0c-0.1-0.1-0.1,0.1-0.1,0.1v0c-0.1,0-0.1,0-0.1-0.1c0,0,0,0,0-0.1c0,0,0,0,0,0.1c0,0,0,0,0,0
		c0.1-0.1,0-0.2,0-0.2c0,0.1-0.1,0.1-0.1,0.2c0-0.1-0.2,0-0.2,0c0,0,0,0,0-0.1c-0.1-0.1-0.1,0.1-0.2,0.1l0.1,0.2l0-0.1
		c0,0,0,0.1,0,0.1c0-0.1,0.1-0.2,0-0.2c0.1,0,0,0.1,0.1,0.1l0-0.1v0.3h0.1l-0.1,0c0.1,0.1,0,0.4,0.2,0.6c-0.1,0.1,0.1,0.3,0,0.3
		c0.1,0.1-0.2-0.2-0.2,0.1c0.1,0,0,0.2,0.1,0.2v0.1h0.1c-0.1,0.2,0.2,0.1,0.2,0.4c0,0,0,0,0,0v-0.1c0,0,0,0.1,0,0.1v0
		c-0.1,0,0-0.1-0.1-0.1c0.1,0.1-0.1,0.1-0.2,0.1c0-0.1-0.1-0.2-0.1-0.2c0,0.1,0,0.1,0,0.2l-0.1,0v-0.1l-0.2,0.1l0,0
		c0,0-0.2,0.1-0.3-0.1l-0.1,0.1c-0.1-0.1,0-0.2,0-0.2c-0.1-0.1-0.1-0.4-0.1-0.5l-0.1-0.3c0.1,0,0.1,0.1,0.2,0l-0.1-0.1
		c0.1-0.1,0-0.1,0-0.2c-0.1,0.1,0.1,0.1-0.1,0.1c0,0,0.1-0.3,0.2-0.4c-0.1-0.1-0.1,0-0.1-0.1c0-0.1,0-0.1-0.1-0.1h-0.1l0-0.1l0,0
		l0.1-0.1l0,0l0,0l0,0c0-0.1,0.1-0.1,0-0.2l-0.1,0c0-0.1,0.2-0.1,0.2-0.1c0.1,0,0,0.1,0.1,0.2c0.1,0,0.1-0.1,0-0.2l0,0c0,0,0,0,0,0
		c0,0,0-0.1,0-0.1c0,0,0.1,0,0.1,0v0.1l0,0c0,0,0,0.1,0,0.1c0,0,0,0,0,0l0,0c0.2-0.2-0.1-0.3,0.1-0.5L15.9,14c0,0.1,0.1,0.2,0,0.3
		h-0.1c0-0.1-0.1-0.3,0-0.3l0,0h0c0-0.1-0.1-0.2-0.1-0.3c-0.2-0.1-0.1-0.3-0.2-0.4c0.1,0,0-0.1,0.1-0.2l-0.1-0.1l0,0
		c0-0.1,0-0.2-0.1-0.4V13h0c0,0,0,0,0,0h0c0,0-0.2-0.2-0.2,0.1c0-0.1,0.1,0.1,0.2,0v0.1l0.1-0.1c0,0,0,0.1-0.1,0.1l-0.2,0
		c0-0.1-0.1,0-0.1-0.1c-0.2,0.1,0.1,0.2-0.1,0.3c0,0.1,0.1,0.2,0,0.2c0,0-0.1,0.1-0.1,0.1c0,0-0.1,0.2,0,0.3c0,0-0.1,0-0.1,0
		c0,0,0,0.1,0.1,0.1c0,0-0.1,0-0.1,0c0,0,0,0.1,0,0.1H15c0,0,0,0,0,0c0.2,0.1,0.1-0.2,0.2-0.3c-0.2-0.1,0.1-0.1-0.1-0.3
		c0.1-0.1,0.2,0.1,0.2-0.1c0,0-0.1,0-0.1,0c0-0.1,0.1,0,0.1-0.1l-0.1,0c0.1,0,0.1-0.1,0.1-0.1l0.1,0c-0.1,0.1-0.1,0.2,0,0.3l0.1-0.1
		c0,0.1,0,0.1,0.1,0.1c0,0,0.1,0,0.1-0.1c0,0,0,0.1,0,0.1l0.1,0.1l-0.1,0c0,0,0-0.1,0-0.1c0,0-0.1,0-0.1,0.1c0-0.1-0.1,0-0.1-0.1
		l-0.1,0l0.1,0.1c-0.1-0.1-0.2,0-0.2,0.1c-0.1,0.2,0.1,0.3,0.1,0.5h0.1c0,0.1-0.1,0-0.1,0v0c0,0,0,0,0,0l0-0.1c0,0-0.1,0.1-0.1,0.1
		c0,0-0.1,0-0.1,0.1v0.1c0,0-0.2,0-0.2-0.1l-0.1,0.1l0.1,0.1c0,0,0,0,0-0.1c0.1,0.1,0.1,0.1,0.1,0.2l0,0c0,0,0,0,0,0l0,0
		c0,0,0,0,0,0h-0.1v0l-0.1,0c0.1,0,0.1-0.2,0-0.2c0,0,0,0-0.1,0v0.1l0,0c-0.1,0.1-0.1,0.2,0,0.2c-0.1,0.1,0,0.2-0.1,0.2
		c0-0.1,0.1-0.1,0-0.1l-0.1,0.1v-0.1l0,0l0,0l-0.1-0.1c0.1-0.1,0-0.2,0-0.2c0,0-0.1-0.1-0.1-0.1c0.1,0.1-0.1,0.2,0,0.2
		c-0.2,0.1,0.1,0.2,0.1,0.3c-0.1,0,0,0.2,0,0.2c0,0,0,0-0.1,0l-0.1-0.2L14,15.2c0.1,0,0,0.1,0.1,0.1c0,0,0,0,0,0c0,0,0,0,0,0
		c0,0-0.1,0.1,0,0.1c0,0-0.1-0.3-0.2-0.1c0.1,0,0.1,0,0.1,0.1c0,0,0,0-0.1,0c0,0,0,0,0,0.1l0,0c0,0,0,0,0,0v0c0,0-0.1,0,0,0l0,0.1
		c-0.2-0.1-0.1,0.2-0.1,0.3c0,0,0,0,0,0l0,0c0,0,0,0,0,0c0,0,0,0,0,0l-0.1,0.1l-0.1-0.1c0,0-0.1,0-0.1,0c0,0,0-0.1-0.1-0.1
		c-0.1,0-0.2,0-0.3-0.1c-0.1,0.1-0.2,0-0.2,0c-0.1-0.1-0.3,0-0.3-0.1c-0.2-0.2-0.5-0.3-0.7-0.5c0.2-0.3,0.4-0.6,0.7-0.8
		c0,0,0-0.1,0-0.1l0.1,0.1c0.1,0,0-0.4,0.2-0.2c-0.1-0.2,0.2-0.3,0.3-0.5l0.1,0.1l0-0.1c0,0,0,0.1,0.1,0.1c0-0.1,0-0.2,0.1-0.2
		c0,0-0.1,0-0.1,0c0-0.1,0.2-0.1,0.2-0.2c0,0,0.1,0,0.1,0l-0.1-0.1c0.2-0.1,0.1-0.2,0.3-0.2c-0.1,0,0-0.2,0.1-0.2
		c0.1-0.2,0.2-0.1,0.3-0.2l0,0l0,0v-0.1l0,0.1c0.1,0,0-0.1,0-0.2c0,0,0,0,0,0.1c0.1-0.1,0.2-0.3,0.3-0.2c0,0,0-0.1,0-0.1
		c0,0,0,0.1,0,0.1c0.1,0,0-0.1,0.1-0.1c0.1-0.1-0.1-0.2,0.1-0.2c0-0.1,0.1-0.3-0.1-0.4c0.1-0.2-0.2-0.1-0.3-0.2v0.1c0,0-0.1,0-0.1,0
		c0,0,0,0,0-0.1c0,0,0,0,0,0c0,0,0,0,0,0c0,0,0,0,0,0c0,0,0,0.1,0,0.1l-0.1-0.1c0,0,0.1,0,0.1,0c0,0,0,0,0,0c0,0,0,0,0,0
		c-0.1,0-0.1,0-0.2-0.1l0,0c0,0,0-0.1,0-0.1l-0.1,0l0,0l0-0.1c-0.1,0.1-0.2,0.2-0.4,0.2c0,0,0-0.1,0-0.2h-0.1V11l0,0
		c-0.1,0-0.1,0.1,0,0.1c-0.1,0-0.2-0.2-0.3-0.2l0,0c0,0,0,0,0,0l0,0c0,0-0.1,0-0.1-0.1c-0.1,0,0,0.1,0,0.2h-0.1c0,0,0-0.1,0-0.1
		l0-0.1c-0.1,0.1-0.1,0-0.2,0.1l0-0.1l-0.2,0.2l-0.1-0.2l0,0.1l-0.1-0.1c-0.1,0.1,0,0.1,0,0.2c0,0-0.1,0-0.1,0.1l0,0l-0.1,0
		c0,0,0,0,0.1,0c0-0.1-0.1,0-0.1,0c0,0,0,0.1-0.1,0.1c0,0,0-0.2-0.1-0.2L12.2,11c0.1,0,0.1,0,0.1,0.1c0,0-0.1,0-0.1,0c0,0,0,0-0.1,0
		c0-0.1,0.1-0.2,0-0.2h0V11c0-0.1-0.1,0-0.2,0l-0.1,0.1c0,0,0,0,0.1-0.1c-0.1-0.2-0.3,0.1-0.3-0.1c-0.1,0.1-0.1,0.2-0.2,0.2L11.3,11
		c0,0.2-0.2,0.1-0.4,0.1c0,0.1-0.1,0.1-0.1,0.1c0,0,0.1,0,0.1,0l-0.1,0v0c-0.1,0-0.2,0.1-0.2-0.1l-0.2,0.1l0,0
		c0-0.1-0.3-0.1-0.2-0.2c0,0-0.1,0-0.1-0.1c0-0.1,0.1-0.2,0-0.2c-0.1,0,0-0.1,0-0.1l0,0l0,0c-0.2-0.1,0-0.4-0.1-0.5
		C10.1,10,10.3,10,10.4,10 M13.7,6.4l0,0.1L13.7,6.4z M13.8,6.6C13.9,6.6,13.9,6.6,13.8,6.6C13.9,6.7,13.8,6.6,13.8,6.6
		C13.8,6.6,13.8,6.6,13.8,6.6L13.8,6.6l-0.1-0.1C13.9,6.5,13.8,6.6,13.8,6.6 M14,6.2L14,6.2C14.1,6.2,14.1,6.2,14,6.2
		c0.1,0,0,0.2,0.1,0.1V6.3c0,0,0,0.1,0.1,0.1l0,0c0,0-0.1,0.1,0,0.1c0,0-0.1,0-0.2,0l0,0.3L14,6.6c0,0,0,0.1,0,0.1V6.6
		c0,0,0.1,0,0.1-0.1V6.5c0,0-0.1,0-0.1,0c0,0,0,0,0,0l0,0c0,0,0,0-0.1,0V6.4c-0.1,0.1-0.1,0-0.1-0.1c0,0,0,0,0,0c0,0,0,0,0,0
		C13.9,6.4,13.9,6.2,14,6.2 M14.2,6.1C14.2,6.1,14.2,6.1,14.2,6.1c0,0,0.1,0.1,0.1,0.1C14.2,6.1,14.2,6.2,14.2,6.1
		C14.2,6.1,14.2,6.1,14.2,6.1 M14.3,6.6c0.2-0.1,0,0.2,0.1,0.2l-0.1,0.1L14.3,6.6L14.3,6.6C14.3,6.6,14.3,6.6,14.3,6.6 M14.3,6.3
		L14.3,6.3v0.2V6.3z M14.8,8.4L14.8,8.4C14.8,8.4,14.8,8.4,14.8,8.4L14.8,8.4C14.8,8.5,14.8,8.5,14.8,8.4 M15.1,8.2c0,0,0,0.1,0,0.1
		H15c0,0,0-0.1-0.1-0.1c-0.1,0.1,0,0-0.1,0L15.1,8.2C15,8.3,15.1,8.2,15.1,8.2 M15.4,8.9L15.2,9c0,0,0-0.1,0-0.1
		c0.1-0.1-0.1,0,0-0.1C15.3,8.9,15.4,8.9,15.4,8.9 M15.4,8.6L15.4,8.6c0,0.1,0,0.1,0,0.1c0,0,0,0-0.1,0L15.4,8.6
		C15.4,8.6,15.4,8.6,15.4,8.6 M15.5,9.5L15.5,9.5L15.5,9.5L15.5,9.5z M15.5,9.3L15.5,9.3c0-0.1-0.1-0.1,0.1-0.1L15.5,9.3z M15.7,9.6
		c0,0.1-0.1,0-0.1,0L15.7,9.6z M15.5,8.9c0,0,0-0.1,0-0.1C15.5,8.8,15.5,8.8,15.5,8.9C15.5,8.9,15.5,8.9,15.5,8.9
		c0,0.1,0,0.1,0.1,0.2l0-0.2c0,0.1-0.1,0.2,0.1,0.2l0,0l-0.1,0.1c0.1,0,0,0.1,0.1,0.2c-0.1-0.1-0.1-0.2-0.3-0.2c0,0,0,0.1,0,0.1
		L15.3,9c0,0,0.1,0,0.1,0C15.5,9,15.5,9,15.5,8.9C15.5,8.9,15.5,8.9,15.5,8.9 M15.8,9.6C15.7,9.6,15.7,9.6,15.8,9.6l-0.1-0.2
		l0.1,0.1C15.8,9.5,15.8,9.5,15.8,9.6L15.8,9.6z M16.4,8.6L16.4,8.6L16.4,8.6L16.4,8.6z M16.6,8.2L16.6,8.2c0,0.1-0.1,0.1-0.1,0
		C16.5,8.2,16.6,8.2,16.6,8.2 M16.7,7.5L16.7,7.5L16.7,7.5L16.7,7.5z M16.9,6.5L16.9,6.5L16.9,6.5z M18.9,6C18.9,6,18.8,6,18.9,6
		C18.8,6,18.8,6,18.9,6L18.9,6c-0.1,0.1-0.1,0.1-0.1,0H18.9C18.8,6,18.8,6,18.9,6C18.8,6,18.8,6,18.9,6L18.9,6z M18.8,7.2
		C18.8,7.2,18.8,7.2,18.8,7.2c0-0.1,0-0.1,0.1-0.1C18.9,7.2,18.8,7.2,18.8,7.2L18.8,7.2z M18.6,7.7C18.6,7.7,18.6,7.7,18.6,7.7
		C18.6,7.7,18.6,7.7,18.6,7.7L18.6,7.7c-0.1-0.1-0.1-0.2,0-0.2c0-0.1,0-0.1,0.1-0.2l0,0h0v0l0,0h0.1l0,0.1l0.1,0
		c-0.1,0-0.1,0.1-0.1,0L18.6,7.7C18.6,7.7,18.6,7.7,18.6,7.7C18.6,7.7,18.6,7.7,18.6,7.7 M18.9,5.6C18.9,5.6,18.9,5.6,18.9,5.6
		C18.9,5.6,19,5.6,18.9,5.6l0.1-0.1C18.9,5.5,19,5.6,18.9,5.6L19,5.7l0,0l-0.1,0.1C18.9,5.6,18.8,5.8,18.9,5.6 M19,6.6v0.1
		c0,0,0,0,0,0L19,6.6C18.9,6.6,18.9,6.6,19,6.6L19,6.6L19,6.6C18.9,6.6,19,6.6,19,6.6 M18.9,5.8L18.9,5.8L19,5.9L18.9,5.8z M19.1,6
		c0,0.1,0.1,0.1,0,0.1L19.1,6C19,6,19.1,6,19.1,6C19.1,5.9,19.1,5.9,19.1,6C19.1,5.9,19.1,5.9,19.1,6 M22,8.1
		C22.1,8.1,22.1,8.1,22,8.1L22,8.1L22,8.1C22.1,8.1,22.1,8.1,22,8.1L22,8.1L22,8.1z M21,15.6l0-0.2L21,15.6L21,15.6L21,15.6L21,15.6
		z M20.9,15.3c0.1,0.1,0.1,0.1,0.2,0.1v0.1C21,15.3,20.9,15.4,20.9,15.3 M20.7,15.6L20.7,15.6L20.7,15.6L20.7,15.6z M20.7,12
		L20.7,12L20.7,12C20.7,12,20.7,12,20.7,12L20.7,12L20.7,12L20.7,12C20.7,12,20.7,12,20.7,12 M21.1,16L21.1,16c-0.1,0,0-0.2-0.1-0.2
		c-0.2,0,0-0.2-0.2-0.1l0.1-0.1L21.1,16C21.1,16,21.1,16,21.1,16L21.1,16z M18.3,15L18.3,15l0-0.1h0V15z M15.5,14.1L15.5,14.1
		L15.5,14.1z M15.4,14.3L15.4,14.3L15.4,14.3L15.4,14.3L15.4,14.3z M15.3,13.9l0.1-0.1L15.3,13.9C15.3,13.9,15.3,13.9,15.3,13.9
		 M15,14.6L15,14.6C15,14.5,15,14.5,15,14.6C15,14.5,15,14.6,15,14.6 M13.8,15.9v-0.1V15.9L13.8,15.9z M40.9,20.1
		C37.2,8.1,30,0,21.8,0S6.3,8.1,2.6,20.1H40.9z"/>
	<path class="st0" d="M41.4,24.2H42c-0.2-0.8-0.4-1.7-0.6-2.5V24.2z"/>
	<path class="st0" d="M2.4,21.3L2.4,21.3H2.3c-0.3,0.9-0.5,1.9-0.7,2.8h0.9V21.3z"/>
	<path class="st0" d="M48.5,45.4h1.7c0.3,0,0.6,0.1,0.8,0.2c0.4,0.3,0.5,0.9,0.5,1.7c0,0.7-0.1,1.2-0.4,1.5c-0.2,0.3-0.6,0.4-1,0.4
		h-1.7V45.4z M48.5,50.5h2c0.7,0,1.1-0.3,1.5-1c0.3-0.6,0.5-1.4,0.5-2.3c0-1-0.2-1.8-0.5-2.4c-0.4-0.6-0.8-0.8-1.4-0.8h-2.9v11.2
		h0.9V50.5z"/>
	<path class="st0" d="M57.9,52.2c0,0.8-0.2,1.4-0.7,1.8c-0.3,0.2-0.5,0.3-0.8,0.3c-0.2,0-0.4-0.1-0.6-0.3c-0.2-0.2-0.3-0.5-0.3-0.9
		c0-0.5,0.1-0.9,0.4-1.1c0.2-0.1,0.4-0.2,0.7-0.3l0.5-0.1c0.1,0,0.3-0.1,0.5-0.2c0.2-0.1,0.3-0.2,0.4-0.3V52.2z M59,54.3
		c-0.1,0-0.2,0-0.2-0.1c0-0.1-0.1-0.2-0.1-0.3v-4.7c0-0.8-0.2-1.3-0.5-1.7c-0.4-0.4-0.8-0.6-1.4-0.6c-0.5,0-0.9,0.2-1.3,0.6
		c-0.4,0.4-0.6,1.1-0.6,2.1h0.8c0-0.4,0.1-0.7,0.2-0.9c0.2-0.4,0.5-0.6,0.9-0.6c0.4,0,0.6,0.1,0.8,0.3c0.2,0.2,0.3,0.5,0.3,1
		c0,0.2,0,0.4,0,0.5c-0.1,0.2-0.2,0.4-0.4,0.4l-1.3,0.3c-0.5,0.1-0.8,0.4-1.1,0.8c-0.3,0.4-0.4,1-0.4,1.8c0,0.7,0.1,1.3,0.4,1.7
		c0.3,0.5,0.6,0.7,1.1,0.7c0.4,0,0.7-0.1,1-0.4c0.3-0.3,0.5-0.6,0.7-1c0,0.3,0.1,0.6,0.1,0.8c0.1,0.3,0.3,0.5,0.6,0.5
		c0.1,0,0.2,0,0.3,0c0.1,0,0.2-0.1,0.3-0.1v-1c0,0-0.1,0-0.1,0C59.1,54.3,59,54.3,59,54.3"/>
	<path class="st0" d="M64,47c-0.3,0-0.6,0.2-0.9,0.6c-0.3,0.4-0.4,0.7-0.5,1v-1.4h-0.8v8.1h0.8v-4.7c0-0.6,0.1-1.1,0.3-1.5
		c0.2-0.4,0.5-0.7,1-0.7c0,0,0.1,0,0.1,0c0,0,0.1,0,0.1,0V47C64.2,47,64.1,47,64,47C64.1,47,64,47,64,47"/>
	<path class="st0" d="M69.4,53.8c-0.2,0.3-0.5,0.5-0.8,0.5c-0.4,0-0.8-0.3-1-0.8c-0.2-0.6-0.3-1.2-0.3-2.1c0-0.8,0.1-1.5,0.2-2
		c0.2-0.8,0.6-1.3,1.1-1.3c0.4,0,0.7,0.2,0.8,0.5c0.2,0.3,0.3,0.8,0.3,1.3h0.8c-0.1-1.1-0.3-1.9-0.6-2.3c-0.3-0.4-0.8-0.7-1.3-0.7
		c-0.6,0-1.2,0.4-1.6,1.2c-0.4,0.8-0.6,1.9-0.6,3.3c0,1.2,0.2,2.1,0.6,2.9c0.4,0.8,0.9,1.2,1.5,1.2c0.6,0,1-0.2,1.4-0.7
		c0.4-0.5,0.6-1.3,0.7-2.4h-0.8C69.7,53,69.6,53.5,69.4,53.8"/>
	<path class="st0" d="M43.2,59.8v5.4h0.5v-2.8c0-0.4,0-0.6,0-0.8c0-0.2,0.1-0.4,0.2-0.6c0.1-0.2,0.2-0.4,0.4-0.4
		c0.1,0,0.2-0.1,0.3-0.1c0.3,0,0.4,0.2,0.5,0.5c0.1,0.2,0.1,0.5,0.1,0.8v3.4h0.5v-3.5c0-0.5,0-1-0.1-1.3c-0.2-0.5-0.5-0.8-0.9-0.8
		c-0.2,0-0.4,0.1-0.6,0.2c-0.2,0.1-0.3,0.4-0.5,0.7v-0.8H43.2z"/>
	<path class="st0" d="M50.1,63.2c0,0.6-0.2,1-0.5,1.2c-0.2,0.1-0.4,0.2-0.6,0.2c-0.2,0-0.3-0.1-0.4-0.2c-0.1-0.1-0.2-0.4-0.2-0.6
		c0-0.3,0.1-0.6,0.3-0.7c0.1-0.1,0.2-0.2,0.4-0.2l0.3-0.1c0.1,0,0.2-0.1,0.3-0.1c0.1,0,0.2-0.1,0.3-0.2V63.2z M49.9,61.9L49,62.1
		c-0.3,0.1-0.6,0.2-0.7,0.5c-0.2,0.3-0.3,0.7-0.3,1.2c0,0.5,0.1,0.8,0.3,1.1c0.2,0.3,0.4,0.5,0.7,0.5c0.3,0,0.5-0.1,0.7-0.3
		c0.2-0.2,0.4-0.4,0.5-0.6c0,0.2,0.1,0.4,0.1,0.5c0.1,0.2,0.2,0.3,0.4,0.3c0.1,0,0.1,0,0.2,0c0,0,0.1,0,0.2-0.1v-0.7
		c0,0-0.1,0-0.1,0c0,0-0.1,0-0.1,0c-0.1,0-0.1,0-0.1-0.1c0-0.1,0-0.1,0-0.2v-3.1c0-0.5-0.1-0.9-0.4-1.1c-0.2-0.2-0.5-0.4-0.9-0.4
		c-0.3,0-0.6,0.1-0.9,0.4c-0.2,0.3-0.4,0.7-0.4,1.4h0.5c0-0.3,0.1-0.5,0.1-0.6c0.1-0.3,0.3-0.4,0.6-0.4c0.2,0,0.4,0.1,0.6,0.2
		c0.1,0.1,0.2,0.4,0.2,0.7c0,0.2,0,0.3,0,0.3C50.1,61.8,50,61.9,49.9,61.9"/>
	<path class="st0" d="M53.2,64.1c0,0.3,0,0.6,0.1,0.8c0.1,0.2,0.3,0.3,0.5,0.3c0.1,0,0.1,0,0.2,0c0.1,0,0.1,0,0.2-0.1v-0.7
		c0,0-0.1,0-0.1,0c0,0-0.1,0-0.1,0c-0.1,0-0.2,0-0.2-0.1c-0.1-0.1-0.1-0.2-0.1-0.4v-3.5h0.5v-0.7h-0.5v-1.5h-0.5v1.5h-0.4v0.7h0.4
		V64.1z"/>
	<path class="st0" d="M58.4,62.4c0,0.5,0,1-0.1,1.3c-0.1,0.6-0.4,0.9-0.8,0.9c-0.3,0-0.4-0.2-0.5-0.5c0-0.2-0.1-0.4-0.1-0.7v-3.6
		h-0.5v3.7c0,0.5,0,0.8,0.1,1.1c0.2,0.5,0.5,0.8,0.9,0.8c0.3,0,0.5-0.1,0.7-0.4c0.1-0.1,0.2-0.3,0.3-0.5l0,0.8h0.5v-5.4h-0.5V62.4z"
		/>
	<path class="st0" d="M61.8,62.1c0-0.4,0.1-0.7,0.2-1c0.1-0.3,0.4-0.4,0.6-0.4c0,0,0.1,0,0.1,0c0,0,0.1,0,0.1,0v-1
		c-0.1,0-0.1,0-0.1,0c0,0,0,0-0.1,0c-0.2,0-0.4,0.1-0.6,0.4c-0.2,0.3-0.3,0.5-0.3,0.7v-0.9h-0.5v5.4h0.5V62.1z"/>
	<path class="st0" d="M65.6,60.9c0.2-0.3,0.4-0.5,0.6-0.5c0.3,0,0.6,0.2,0.8,0.7c0.1,0.2,0.1,0.6,0.2,0.9h-1.8
		C65.3,61.6,65.4,61.2,65.6,60.9 M66.2,65.4c0.2,0,0.3,0,0.4-0.1c0.2-0.1,0.4-0.3,0.6-0.5c0.1-0.2,0.2-0.4,0.3-0.6
		c0.1-0.2,0.1-0.5,0.1-0.7h-0.6c0,0.2-0.1,0.4-0.2,0.6c-0.2,0.3-0.4,0.5-0.7,0.5c-0.3,0-0.5-0.2-0.7-0.5c-0.1-0.3-0.2-0.8-0.2-1.3
		h2.4c0-0.5,0-0.9,0-1.2c0-0.4-0.1-0.7-0.2-1c-0.1-0.3-0.3-0.5-0.5-0.7c-0.2-0.2-0.4-0.3-0.7-0.3c-0.5,0-0.8,0.3-1.1,0.8
		c-0.3,0.5-0.4,1.2-0.4,2.1c0,0.9,0.1,1.6,0.4,2.1C65.4,65.1,65.8,65.4,66.2,65.4"/>
</g>
<rect x="69.9" y="57.7" class="st0" width="0.5" height="7.4"/>
<g>
	<path class="st0" d="M39.9,69.6c-0.2,0-0.4,0.1-0.6,0.4c-0.2,0.3-0.3,0.5-0.3,0.7v-0.9h-0.5v5.4h0.5V72c0-0.4,0.1-0.7,0.2-1
		c0.1-0.3,0.4-0.4,0.6-0.4c0,0,0.1,0,0.1,0c0,0,0.1,0,0.1,0v-1C40,69.6,40,69.6,39.9,69.6C40,69.6,39.9,69.6,39.9,69.6"/>
</g>
<polygon class="st0" points="43,69 43.4,69 44.2,67.5 43.6,67.5 "/>
<g>
	<path class="st0" d="M42.8,70.8c0.2-0.3,0.4-0.5,0.6-0.5c0.3,0,0.6,0.2,0.8,0.7c0.1,0.2,0.1,0.6,0.2,0.9h-1.8
		C42.5,71.5,42.6,71.1,42.8,70.8 M43.8,75.2c0.2-0.1,0.4-0.3,0.6-0.5c0.1-0.2,0.2-0.4,0.3-0.6c0.1-0.2,0.1-0.5,0.1-0.7h-0.6
		c0,0.2-0.1,0.5-0.2,0.6c-0.2,0.3-0.4,0.5-0.7,0.5c-0.3,0-0.5-0.2-0.7-0.5c-0.1-0.3-0.2-0.8-0.2-1.3h2.4c0-0.5,0-0.9,0-1.2
		c0-0.4-0.1-0.7-0.2-1c-0.1-0.3-0.3-0.5-0.5-0.7c-0.2-0.2-0.4-0.3-0.7-0.3c-0.5,0-0.8,0.3-1.1,0.8c-0.3,0.5-0.4,1.2-0.4,2.1
		c0,0.9,0.1,1.6,0.4,2.1c0.3,0.5,0.6,0.7,1,0.7C43.6,75.3,43.7,75.3,43.8,75.2"/>
	<path class="st0" d="M49.1,73.5c-0.2,0.6-0.4,0.9-0.8,0.9c-0.3,0-0.5-0.2-0.6-0.5c-0.1-0.3-0.2-0.8-0.2-1.4c0-0.5,0-0.9,0.1-1.3
		c0.1-0.6,0.4-0.9,0.8-0.9c0.3,0,0.5,0.2,0.6,0.5c0.2,0.3,0.2,0.8,0.2,1.5C49.2,72.8,49.2,73.2,49.1,73.5 M49.7,74.7v-4.9h-0.5v0.7
		c-0.1-0.2-0.2-0.4-0.3-0.5c-0.2-0.2-0.4-0.3-0.7-0.3c-0.4,0-0.7,0.3-1,0.8c-0.3,0.5-0.4,1.2-0.4,2.1c0,1,0.1,1.7,0.4,2.1
		c0.3,0.4,0.6,0.6,0.9,0.6c0.2,0,0.5-0.1,0.6-0.2c0.2-0.1,0.3-0.3,0.4-0.6c0,0.7,0,1.3-0.1,1.5c-0.1,0.5-0.4,0.7-0.8,0.7
		c-0.3,0-0.5-0.1-0.6-0.3c-0.1-0.1-0.1-0.3-0.2-0.6H47c0,0.6,0.2,1,0.4,1.2c0.2,0.3,0.5,0.4,0.9,0.4c0.6,0,1.1-0.4,1.3-1.1
		C49.6,75.9,49.7,75.3,49.7,74.7"/>
</g>
<rect x="52.1" y="67.7" class="st0" width="0.5" height="1"/>
<rect x="52.1" y="69.7" class="st0" width="0.5" height="5.4"/>
<g>
	<path class="st0" d="M57,73.8c-0.1,0.5-0.4,0.7-0.7,0.7c-0.3,0-0.6-0.2-0.7-0.6c-0.1-0.4-0.2-0.9-0.2-1.4c0-0.6,0.1-1.1,0.2-1.5
		c0.1-0.4,0.4-0.6,0.7-0.6c0.4,0,0.6,0.2,0.8,0.7c0.1,0.3,0.1,0.7,0.1,1.2C57.2,72.9,57.1,73.4,57,73.8 M56.3,69.5
		c-0.5,0-0.8,0.3-1.1,0.8c-0.3,0.5-0.4,1.3-0.4,2.2c0,0.8,0.1,1.5,0.4,2c0.3,0.5,0.6,0.8,1,0.8c0.5,0,0.9-0.3,1.2-0.9
		c0.3-0.6,0.4-1.3,0.4-2.2c0-0.9-0.1-1.6-0.4-2C57,69.8,56.7,69.5,56.3,69.5"/>
	<path class="st0" d="M60.5,72.3c0-0.4,0-0.6,0-0.8c0-0.2,0.1-0.4,0.2-0.6c0.1-0.2,0.2-0.4,0.4-0.4c0.1,0,0.2-0.1,0.3-0.1
		c0.3,0,0.4,0.2,0.5,0.5c0.1,0.2,0.1,0.5,0.1,0.8v3.4h0.5v-3.5c0-0.5,0-1-0.1-1.3c-0.2-0.5-0.5-0.8-0.9-0.8c-0.2,0-0.4,0.1-0.6,0.2
		c-0.2,0.1-0.3,0.4-0.5,0.7v-0.8h-0.5v5.4h0.5V72.3z"/>
	<path class="st0" d="M66.9,73.1c0,0.6-0.2,1-0.5,1.2c-0.2,0.1-0.4,0.2-0.6,0.2c-0.2,0-0.3-0.1-0.4-0.2c-0.1-0.1-0.2-0.4-0.2-0.6
		c0-0.3,0.1-0.6,0.3-0.7c0.1-0.1,0.2-0.2,0.4-0.2l0.3-0.1c0.1,0,0.2-0.1,0.3-0.1c0.1,0,0.2-0.1,0.3-0.2V73.1z M67.6,74.5
		c-0.1,0-0.1,0-0.1-0.1c0-0.1,0-0.1,0-0.2v-3.1c0-0.5-0.1-0.9-0.4-1.1c-0.2-0.2-0.5-0.4-0.9-0.4c-0.3,0-0.6,0.1-0.9,0.4
		c-0.2,0.3-0.4,0.7-0.4,1.4h0.5c0-0.3,0.1-0.5,0.1-0.6c0.1-0.3,0.3-0.4,0.6-0.4c0.2,0,0.4,0.1,0.6,0.2c0.1,0.1,0.2,0.4,0.2,0.7
		c0,0.2,0,0.3,0,0.3c0,0.1-0.1,0.2-0.2,0.3L65.8,72c-0.3,0.1-0.6,0.2-0.7,0.5c-0.2,0.3-0.3,0.7-0.3,1.2c0,0.5,0.1,0.8,0.3,1.1
		c0.2,0.3,0.4,0.5,0.7,0.5c0.3,0,0.5-0.1,0.7-0.3c0.2-0.2,0.4-0.4,0.5-0.6c0,0.2,0.1,0.4,0.1,0.5c0.1,0.2,0.2,0.3,0.4,0.3
		c0.1,0,0.1,0,0.2,0c0,0,0.1,0,0.2-0.1v-0.7C67.7,74.5,67.7,74.5,67.6,74.5C67.7,74.5,67.6,74.5,67.6,74.5"/>
</g>
<rect x="69.9" y="67.7" class="st0" width="0.5" height="7.4"/>
<g>
	<path class="st0" d="M10.5,52.5c0.2,0.2,0.6,0.3,0.6,0.3c0.5,0.5,2.3,1.8,2.4,1.8c-1.7,0-3.9,0.8-4.2,1.2c1.6-0.4,4-0.7,4.3-0.7
		c0.3,0.1,1,0.7,1.4,0.8c0.5,0.1,0.2,0.3,0.4,0.4c0.2,0.1,1.3,0.1,1.3,0.4c0,0.2-2.3,0.6-2.3,0.9c-0.1,0.3,0.5,0.3,0.9,0.2
		c0.4-0.1,0.6-0.5,1.1-0.5c0.5,0.1,2.4,0.1,2.4,0.1c0-0.1-0.9-0.4-1.4-0.8c-0.4-0.4-1.5-0.9-1.7-1.2c-0.1-0.3-1.3-2.5-1-3.5
		c0-0.1-0.2-0.1-0.2,0c-0.1,0.1-0.8,0.9,0.2,2.2c0.4,0.7,0.2,0.9,0.2,0.9c-1-0.9-2.9-1.8-3.2-2.3c-0.3-0.5-0.3-0.8-0.4-1
		c-0.1-0.2-0.3-2.6-0.2-3.1c-0.3,0.2-0.4,2.1-0.3,2.8c-0.4-0.4-2.3-3.4-2.4-3.6c-0.1-0.1-0.2,0.3,0,0.6c0.2,0.4,1.8,2.9,1.7,3
		c-0.6-0.1-3.6-0.4-3.7-0.3c-0.2,0.1-0.2,0.4,0.1,0.4c0.2,0,3.5,0.2,3.6,0.2C10.3,52.1,10.3,52.3,10.5,52.5"/>
	<path class="st0" d="M27.5,55.5c-0.1,0.3-1.2,0.8-1.7,1.2c-0.4,0.4-1.4,0.7-1.4,0.8c0,0,1.9,0,2.4-0.1c0.5-0.1,0.7,0.3,1.1,0.5
		c0.4,0.1,1,0.1,0.9-0.2c-0.1-0.3-2.3-0.7-2.4-0.9c0-0.3,1.1-0.3,1.3-0.4c0.2-0.1,0-0.2,0.4-0.4c0.5-0.1,1.1-0.7,1.4-0.8
		c0.3-0.1,2.7,0.3,4.3,0.7c-0.2-0.3-2.4-1.2-4.2-1.2c0.1,0,1.9-1.3,2.4-1.8c0,0,0.4-0.2,0.6-0.3c0.2-0.2,0.2-0.4,0.3-0.4
		c0.1,0,3.4-0.2,3.6-0.2s0.2-0.3,0.1-0.4c-0.2-0.1-3.2,0.2-3.7,0.3c-0.1-0.1,1.5-2.6,1.7-3c0.2-0.4,0.1-0.7,0-0.6
		c-0.1,0.1-2,3.1-2.3,3.6c0.1-0.7,0-2.5-0.3-2.8c0.2,0.5-0.1,2.9-0.2,3.1c-0.1,0.2-0.1,0.5-0.4,1c-0.3,0.5-2.1,1.4-3.2,2.3
		c0,0-0.2-0.2,0.2-0.9c1-1.3,0.2-2.2,0.2-2.2c-0.1-0.1-0.2-0.2-0.2,0C28.8,53,27.6,55.2,27.5,55.5"/>
	<path class="st0" d="M4.8,88.2c-0.2,0.4-0.4,0.7-0.7,0.7c-0.4,0-0.7-0.2-0.8-0.7C3.1,87.7,3,87.1,3,86.4c0-0.8,0.1-1.5,0.3-1.9
		c0.2-0.4,0.5-0.6,0.8-0.6c0.3,0,0.5,0.2,0.7,0.6c0.2,0.4,0.3,1,0.3,1.8C5.1,87.1,5,87.7,4.8,88.2 M5.1,83.9
		c-0.1-0.3-0.3-0.5-0.4-0.6C4.5,83,4.3,82.9,4,82.9c-0.5,0-1,0.3-1.2,1c-0.3,0.7-0.4,1.5-0.4,2.5c0,1,0.2,1.8,0.5,2.4
		c0.3,0.6,0.7,0.9,1.1,0.9c0.3,0,0.5-0.1,0.7-0.3c0.2-0.2,0.4-0.5,0.5-0.9v0.9h0.6v-9H5.1V83.9z"/>
	<path class="st0" d="M7.5,85.8c0-0.6,0.1-1,0.3-1.4C8,84,8.2,83.8,8.5,83.8c0.4,0,0.7,0.3,0.9,0.8c0.1,0.3,0.2,0.7,0.2,1.1H7.5z
		 M10.2,85.2c0-0.4-0.1-0.8-0.3-1.2c-0.1-0.3-0.3-0.6-0.6-0.8c-0.3-0.2-0.5-0.3-0.8-0.3c-0.5,0-1,0.3-1.3,1
		c-0.3,0.7-0.5,1.5-0.5,2.6c0,1.1,0.2,1.9,0.5,2.5c0.3,0.6,0.7,0.9,1.2,0.9c0.2,0,0.4,0,0.5-0.1c0.3-0.1,0.5-0.3,0.7-0.7
		c0.1-0.2,0.2-0.4,0.3-0.7c0.1-0.3,0.2-0.6,0.2-0.8H9.6c0,0.3-0.1,0.5-0.2,0.8c-0.2,0.4-0.5,0.6-0.8,0.6c-0.4,0-0.6-0.2-0.8-0.6
		c-0.2-0.4-0.3-0.9-0.3-1.6h2.8C10.3,86,10.3,85.5,10.2,85.2"/>
</g>
<polygon class="st0" points="13.7,80.6 13.7,89.6 14.4,89.6 14.4,88.5 14.4,80.6 "/>
<g>
	<path class="st0" d="M18,87.1c0,0.7-0.2,1.2-0.6,1.5c-0.2,0.2-0.4,0.3-0.7,0.3c-0.2,0-0.4-0.1-0.5-0.3c-0.1-0.2-0.2-0.4-0.2-0.8
		c0-0.4,0.1-0.7,0.3-0.9c0.1-0.1,0.3-0.2,0.5-0.2l0.4-0.1c0.1,0,0.2-0.1,0.4-0.1c0.1-0.1,0.2-0.1,0.3-0.2V87.1z M18.9,88.8
		c-0.1,0-0.1,0-0.2-0.1c0-0.1,0-0.2,0-0.3v-3.8c0-0.6-0.1-1.1-0.4-1.4c-0.3-0.3-0.7-0.5-1.1-0.5c-0.4,0-0.7,0.2-1,0.5
		c-0.3,0.3-0.5,0.9-0.5,1.7h0.6c0-0.3,0.1-0.6,0.2-0.8c0.1-0.3,0.4-0.5,0.7-0.5c0.3,0,0.5,0.1,0.7,0.3c0.2,0.2,0.2,0.4,0.2,0.8
		c0,0.2,0,0.3,0,0.4c-0.1,0.2-0.2,0.3-0.3,0.3l-1.1,0.2c-0.4,0.1-0.7,0.3-0.9,0.6c-0.2,0.3-0.3,0.8-0.3,1.4c0,0.6,0.1,1,0.3,1.4
		c0.2,0.4,0.5,0.6,0.9,0.6c0.3,0,0.6-0.1,0.8-0.3c0.3-0.2,0.4-0.5,0.6-0.8c0,0.3,0.1,0.5,0.1,0.6c0.1,0.3,0.3,0.4,0.5,0.4
		c0.1,0,0.2,0,0.2,0c0.1,0,0.1,0,0.2-0.1v-0.8C19,88.8,19,88.8,18.9,88.8C18.9,88.8,18.9,88.8,18.9,88.8"/>
</g>
<polygon class="st0" points="22.4,89.6 23.2,89.6 23.2,85.5 25.8,85.5 25.8,84.4 23.2,84.4 23.2,81.7 26.1,81.7 26.1,80.6 
	22.4,80.6 "/>
<g>
	<path class="st0" d="M29.5,88c-0.2,0.6-0.5,0.8-0.9,0.8c-0.4,0-0.7-0.2-0.9-0.7c-0.2-0.5-0.3-1-0.3-1.7c0-0.7,0.1-1.3,0.3-1.9
		c0.2-0.5,0.5-0.8,0.9-0.8c0.5,0,0.8,0.3,1,0.9c0.1,0.4,0.2,0.9,0.2,1.5C29.8,86.8,29.7,87.5,29.5,88 M28.7,82.8c-0.6,0-1,0.3-1.3,1
		c-0.3,0.7-0.5,1.5-0.5,2.6c0,1,0.2,1.9,0.5,2.5c0.3,0.6,0.7,0.9,1.3,0.9c0.6,0,1.1-0.3,1.4-1c0.3-0.7,0.5-1.6,0.5-2.6
		c0-1.1-0.2-1.9-0.5-2.5C29.6,83.1,29.2,82.8,28.7,82.8"/>
	<path class="st0" d="M33.2,82.9c-0.3,0-0.5,0.2-0.7,0.5c-0.2,0.3-0.3,0.6-0.4,0.8V83h-0.6v6.6h0.6v-3.8c0-0.5,0.1-0.9,0.3-1.2
		c0.2-0.4,0.4-0.5,0.8-0.5c0,0,0.1,0,0.1,0c0,0,0.1,0,0.1,0v-1.2C33.3,82.9,33.3,82.9,33.2,82.9C33.2,82.9,33.2,82.9,33.2,82.9"/>
	<path class="st0" d="M34.7,85.8c0-0.6,0.1-1,0.3-1.4c0.2-0.4,0.5-0.5,0.8-0.5c0.4,0,0.7,0.3,0.9,0.8c0.1,0.3,0.2,0.7,0.2,1.1H34.7z
		 M37.5,85.2c0-0.4-0.1-0.8-0.3-1.2c-0.1-0.3-0.3-0.6-0.6-0.8c-0.3-0.2-0.5-0.3-0.8-0.3c-0.5,0-1,0.3-1.3,1
		c-0.3,0.7-0.5,1.5-0.5,2.6c0,1.1,0.2,1.9,0.5,2.5c0.3,0.6,0.7,0.9,1.2,0.9c0.2,0,0.4,0,0.5-0.1c0.3-0.1,0.5-0.3,0.7-0.7
		c0.1-0.2,0.2-0.4,0.3-0.7c0.1-0.3,0.2-0.6,0.2-0.8h-0.7c0,0.3-0.1,0.5-0.2,0.8c-0.2,0.4-0.5,0.6-0.8,0.6c-0.4,0-0.6-0.2-0.8-0.6
		c-0.2-0.4-0.3-0.9-0.3-1.6h2.8C37.5,86,37.5,85.5,37.5,85.2"/>
</g>
<polygon class="st0" points="34.7,82.1 35.3,82.1 35.8,81 36.2,82.1 36.9,82.1 36.1,80.4 35.4,80.4 "/>
<g>
	<path class="st0" d="M39.4,81.2h-0.6V83h-0.5v0.9h0.5v4.4c0,0.4,0.1,0.8,0.2,1c0.1,0.3,0.3,0.4,0.6,0.4c0.1,0,0.2,0,0.3,0
		c0.1,0,0.2,0,0.2-0.1v-0.9c-0.1,0-0.1,0-0.1,0c0,0-0.1,0-0.1,0c-0.1,0-0.2,0-0.3-0.1c-0.1-0.1-0.1-0.2-0.1-0.5v-4.3H40V83h-0.6
		V81.2z"/>
	<path class="st0" d="M45.5,88.2c-0.2,0.4-0.4,0.7-0.7,0.7c-0.4,0-0.7-0.2-0.8-0.7c-0.2-0.5-0.3-1.1-0.3-1.8c0-0.8,0.1-1.5,0.3-1.9
		c0.2-0.4,0.5-0.6,0.8-0.6c0.3,0,0.5,0.2,0.7,0.6c0.2,0.4,0.3,1,0.3,1.8C45.8,87.1,45.7,87.7,45.5,88.2 M45.8,83.9
		c-0.2-0.3-0.3-0.5-0.4-0.6c-0.2-0.2-0.4-0.3-0.7-0.3c-0.5,0-1,0.3-1.2,1c-0.3,0.7-0.4,1.5-0.4,2.5c0,1,0.2,1.8,0.5,2.4
		c0.3,0.6,0.7,0.9,1.1,0.9c0.3,0,0.5-0.1,0.7-0.3c0.2-0.2,0.4-0.5,0.5-0.9v0.9h0.6v-9h-0.6V83.9z"/>
</g>
<polygon class="st0" points="47.5,80.6 47.7,84.2 48.1,84.2 48.2,80.6 "/>
<g>
	<path class="st0" d="M53.2,87.6c-0.3,0.8-0.8,1.2-1.4,1.2c-0.7,0-1.2-0.3-1.5-1c-0.3-0.7-0.5-1.5-0.5-2.5c0-1.2,0.2-2.2,0.5-2.8
		c0.4-0.6,0.8-1,1.4-1c0.6,0,1,0.3,1.4,1c0.3,0.6,0.5,1.5,0.5,2.6C53.6,85.9,53.5,86.8,53.2,87.6 M51.7,80.3c-0.9,0-1.6,0.6-2,1.7
		c-0.4,0.9-0.5,1.9-0.5,3.1c0,1.3,0.2,2.5,0.6,3.3c0.5,0.9,1.1,1.4,1.9,1.4c0.9,0,1.6-0.5,2-1.6c0.4-0.9,0.6-2,0.6-3.4
		c0-1.2-0.2-2.3-0.5-3.1C53.4,80.8,52.7,80.3,51.7,80.3"/>
	<path class="st0" d="M57.1,82.9c-0.3,0-0.5,0.2-0.7,0.5c-0.2,0.3-0.3,0.6-0.4,0.8V83h-0.6v6.6H56v-3.8c0-0.5,0.1-0.9,0.3-1.2
		c0.2-0.4,0.4-0.5,0.8-0.5c0,0,0.1,0,0.1,0c0,0,0.1,0,0.1,0v-1.2C57.2,82.9,57.2,82.9,57.1,82.9C57.1,82.9,57.1,82.9,57.1,82.9"/>
</g>
<rect x="58.1" y="80.6" class="st0" width="0.6" height="1.3"/>
<rect x="58.1" y="83" class="st0" width="0.6" height="6.5"/>
<g>
	<path class="st0" d="M60.5,85.8c0-0.6,0.1-1,0.3-1.4c0.2-0.4,0.5-0.5,0.8-0.5c0.4,0,0.7,0.3,0.9,0.8c0.1,0.3,0.2,0.7,0.2,1.1H60.5z
		 M63.3,85.2c0-0.4-0.1-0.8-0.3-1.2c-0.1-0.3-0.3-0.6-0.6-0.8c-0.3-0.2-0.5-0.3-0.8-0.3c-0.5,0-1,0.3-1.3,1
		c-0.3,0.7-0.5,1.5-0.5,2.6c0,1.1,0.2,1.9,0.5,2.5c0.3,0.6,0.7,0.9,1.2,0.9c0.2,0,0.4,0,0.5-0.1c0.3-0.1,0.5-0.3,0.7-0.7
		c0.1-0.2,0.2-0.4,0.3-0.7c0.1-0.3,0.2-0.6,0.2-0.8h-0.7c0,0.3-0.1,0.5-0.2,0.8c-0.2,0.4-0.5,0.6-0.8,0.6c-0.4,0-0.6-0.2-0.8-0.6
		c-0.2-0.4-0.3-0.9-0.3-1.6h2.8C63.4,86,63.3,85.5,63.3,85.2"/>
	<path class="st0" d="M66.3,82.9c-0.3,0-0.5,0.1-0.7,0.3c-0.2,0.2-0.4,0.4-0.6,0.8V83h-0.6v6.6h0.7v-3.4c0-0.4,0-0.8,0-1
		c0-0.2,0.1-0.5,0.2-0.7c0.1-0.3,0.3-0.4,0.5-0.5c0.1-0.1,0.2-0.1,0.4-0.1c0.3,0,0.5,0.2,0.6,0.6c0.1,0.2,0.1,0.6,0.1,1v4.1h0.6
		v-4.2c0-0.7-0.1-1.2-0.2-1.5C67.3,83.2,66.9,82.9,66.3,82.9"/>
	<path class="st0" d="M69.6,81.2H69V83h-0.5v0.9H69v4.4c0,0.4,0.1,0.8,0.2,1c0.1,0.3,0.3,0.4,0.6,0.4c0.1,0,0.2,0,0.3,0
		c0.1,0,0.2,0,0.2-0.1v-0.9c0,0-0.1,0-0.1,0c0,0-0.1,0-0.1,0c-0.1,0-0.2,0-0.3-0.1c-0.1-0.1-0.1-0.2-0.1-0.5v-4.3h0.6V83h-0.6V81.2z
		"/>
</g>
</svg>
