<svg xmlns="http://www.w3.org/2000/svg" xmlns:xlink="http://www.w3.org/1999/xlink" version="1.0" viewBox="0 0 580 580"><defs><path id="a" fill="#448aff" fill-opacity="1" stroke="none" d="M118 43c-11 0-20 3-28 11S78 71 78 82s4 20 12 28 17 11 28 11h2c11 0 20-3 28-11s12-17 12-28-4-20-12-28-17-11-28-11h-2zm-30 87c-11 0-18 6-19 18v141l50-2 50 2V148c-1-12-7-18-19-18H88z" font-family="NPSPICT3" font-size="40" font-stretch="normal" font-style="normal" font-variant="normal" font-weight="400" style="text-align:start;line-height:125%;-inkscape-font-specification:NPSPICT3" text-anchor="start" writing-mode="lr-tb"/></defs><path fill="#448aff" d="M214 282c-22 0-33 12-38 25l-28 72c-11 1-30 14-30 38v91h27v29c0 36 50 35 50 0v-29h182v29c0 35 51 36 51 0v-29h27v-91c0-24-20-37-31-38l-28-72c-5-13-16-25-37-25H214zm-1 26h146c9 0 13 6 16 14l21 56H177l21-56c2-8 6-14 15-14zm-42 97c13 0 23 11 23 24s-10 24-23 24-24-11-24-24 11-24 24-24zm231 0c12 0 23 11 23 24s-11 24-23 24c-13 0-24-11-24-24s11-24 24-24z"/><g transform="translate(71 -21)"><use xlink:href="#a" font-family="NPSPICT3" font-size="40" font-weight="400" style="text-align:start;line-height:125%;-inkscape-font-specification:NPSPICT3"/><use xlink:href="#path3239" fill-rule="evenodd" stroke-linecap="round" stroke-width="67.1"/><use xlink:href="#path8774" fill-rule="evenodd" stroke-linecap="round" stroke-width="67.1"/></g><g transform="translate(271 -21)"><use xlink:href="#a" font-family="NPSPICT3" font-size="40" font-weight="400" style="text-align:start;line-height:125%;-inkscape-font-specification:NPSPICT3"/><use xlink:href="#path3239" fill-rule="evenodd" stroke-linecap="round" stroke-width="67.1"/><use xlink:href="#path8774" fill-rule="evenodd" stroke-linecap="round" stroke-width="67.1"/></g></svg>