<svg xmlns="http://www.w3.org/2000/svg" fill="#448aff" viewBox="0 0 512 512"><path d="M209 101a50 50 0 1 0 0-101 50 50 0 0 0 0 101zm257 193c-1-7-7-11-13-10l-26 4-2-15c-1-6-6-10-12-9l-4 1-1-6-24-55c-6-13-22-30-35-37 0 0-73-45-79-47-4-2-8-2-11-2l-37 74-45-60-7 5-66 79-55 20c-10 4-16 15-12 26v1c3 10 17 15 27 13l42-9c11-3 21-8 31-14l35-30 9 74c1 6 1 8-2 13l-26 41c-9 16-17 33-21 52l-19 81c-2 13 7 25 20 27l1 1c12 2 24-6 27-18l30-87 45-64 37 63c2 5 6 9 9 12l70 68c9 9 22 9 32 1l1-1a24 24 0 0 0 2-33l-59-65-32-94-6-96 42 18 38 57c-2 2-3 6-3 9l2 15-25 4c-7 0-11 6-10 12l11 71c1 6 6 10 12 9l110-16c6-1 10-7 9-13l-10-70zm-247-69a7 7 0 1 1 14 0 7 7 0 0 1-14 0zm10 50a7 7 0 1 1 0-15 7 7 0 0 1 0 15zm149 7c5 5 13 6 20 3 4-2 7-6 9-9l7-1h1l2 15-37 5-2-13z" class="st0"/><path d="m205 152 14 19 10-20-4-32-24 4 4 29z" class="st0"/></svg>