<svg xmlns="http://www.w3.org/2000/svg" width="170" height="279" version="1.0"><g style="display:inline"><path transform="matrix(1.2261 0 0 1.0134 -155.324 -829.928)" d="M265.334 956.603a69.326 137.655 0 1 1-138.652 0 69.326 137.655 0 1 1 138.652 0" style="color:#000;fill:#00936f;fill-opacity:1;fill-rule:evenodd;stroke:none;stroke-width:2.00034547;stroke-linecap:butt;stroke-linejoin:round;marker:none;marker-start:none;marker-mid:none;marker-end:none;stroke-miterlimit:4;stroke-dasharray:none;stroke-dashoffset:0;stroke-opacity:1;visibility:visible;display:inline;overflow:visible"/><path d="m67.277 17.495 9.568.502-6.043 13.539L81.88 23.01l4.029 5.516-6.546 6.017 13.595 4.513-.798 5.101-5.244 1.418-15.107-5.014L82.887 50.59v4.011l-5.035 3.51-10.072-11.03 2.162 13.331-8.118-.147-.087-11.68-6.042 7.02-5.54-3.008 8.561-12.537-14.1 1.003v-5.516l10.575-1.504-6.042-8.525 5.539-3.51 8.56 10.03zm72.588 162.137c-.977.047-1.96.291-2.911.69-1.276.532-2.841 1.917-4.067 3.955-1.227 2.038-1.609 4.377-2.778 4.822-1.3.495-2.305-1.894-3.622-4.467-1.437-2.804-1.937-2.933-4.09-2.822-2.158.112-3.665 3.49-4.222 6.534-.572 3.125-.178 11.65-1.355 12.445l-.045.022c-.005.002-.017-.002-.022 0-1.24.48-1.924-1.07-3.111-2.667-1.335-1.793-2.166-3.854-4.467-3.111-2.283.736-2.4 2.854-2.956 5.044-.561 2.21-.45 4.752-.822 6.534-.386 1.853-1.642 6.428-2.756 7.356-1.091.91-4.448-.928-6.378-.222-1.93.705-1.857 1.994-2.822 4.444s-.117 4.317-1.045 5.356c-1.031 1.155-2.135.678-4.733 1.844v3.934c2.376-1.559 3.717-2.868 4.956-3.045.014-.002.05 0 .066 0 1.53-.014 13.05 4.872 16.49 4.912 3.266.037 5.542-1.322 6.311-2.756.743-1.385-.416-5.879.667-7.378.019-.025.046-.066.066-.089l.067-.067c.072-.068.157-.13.245-.177 1.781-.966 8.425 1.941 10.244 2.733 2.005.872 5.197.777 7.067.156 2.254-.75 2.999-1.124 3.112-3.778.11-2.58-5.602-4.863-5.045-6.978.557-2.116 9.397-.09 12.69-1.49 3.229-1.373 5.444-1.93 5.555-6.977.106-4.826-1.918-5.213-5.556-6.178-2.743-.728-3.982-.688-4.578-1.178-.18-.155-.313-.371-.4-.667v-.022c-.005-.024-.021-.062-.022-.089.009-1.339 5.284-5.453 6.045-8.134.78-2.746.67-5.233-1.334-6.978-1.312-1.142-2.87-1.586-4.444-1.51m-3.223 10.823-10.289 13.556 12.69.622-13.334.533-8.6 6.823 9.755 4.2-3.51-.8-7.712-2.244-15.868 10.711 8.934.822-14.49.222 10.912-6.933 5.778-12.6-4.2 11.867s7.37-4.865 8.511-5.734c1.208-.919 7.667-6.334 7.667-6.334l.2-12.822.845 11.756zM33.629 177.333c.968.14 3.077.896 3.987 1.383 1.219.652 2.435 1.97 3.462 4.115 1.026 2.146.239 5.14 1.36 5.695 1.247.617 2.16-.931 3.717-3.366 1.698-2.655 2.53-3.104 4.654-2.735 1.823.317 3.842 1.933 4.106 7.221.079 1.587-1.29 8.199-.604 10.614.484 1.706 2.57-.003 3.238-.74 1.499-1.658 2.312-4.26 4.533-3.302 2.202.95 2.746 3.28 3.091 5.513.349 2.252-.004 4.773.196 6.582.208 1.882-1.03 4.139.362 4.54 1.315.38 2.74-3.527 4.795-3.498 3.22.047 5.124 6.363 5.851 8.893s1.07 3.783 1.58 4.801c.693 1.385 1.535 4.029 3.276 5.647l-.375 3.916c-2.217-1.778-3.427-3.209-4.643-3.503-.014-.004-.05-.004-.067-.007-1.52-.16-14.642 3.533-18.07 3.244-3.255-.275-3.98-2.167-4.09-3.79-.162-2.415 3.21-4.885 1.615-6.39-1.862-1.755-12.923 1.93-15.43 1.823-2.508-.106-5.941-1.815-5.902-4.47.031-2.16 6.779-6.05 5.371-7.726-2.872-3.42-8.505-1.299-11.124-2.062-3.37-.98-6.348-3.8-6.65-5.9-.333-2.306 2.197-5.408 4.754-5.83 2.556-.424 5.493-.814 6.028-2.958.24-.963-2.3-2.338-3.986-4.168s-2.52-4.117-2.646-4.802c-.514-2.81.566-5.589 2.728-7.135 1.415-1.011 3.322-1.83 4.883-1.605m2.77 12.365 6.724 13.881-11.726.227 11.96 1.134 10.584 8.576.133 1.247-12.167 4.512 14.2-3.059 12.547 7.572-6.076 2.12 11.21-.847-10.87-6.903-2.545-13.762.822 12.51s-5.016-3.688-6.07-4.662c-1.114-1.03-7.845-6.664-7.845-6.664l-.536-11.744-.996 10.582z" style="fill:#fff;fill-opacity:1;fill-rule:evenodd;stroke:none;stroke-width:1px;stroke-linecap:butt;stroke-linejoin:miter;stroke-opacity:1"/><path d="M85.307 121.386a9.4 9.4 0 0 0-4.733 1.578c-3.304 2.19-3.227 5.612-2.622 7.911.63 2.398 4.42 10.621.533 11.667-3.657.984-7.584-7.638-11.89-7.378-4.305.26-5.644 4.223-5.022 7.69.763 4.25 4.26 7.948 6.667 11.533 2.958 4.407 3.225 5.72 2.111 8.578-1.052 2.702-5.492.614-7.067 1.778a1.4 1.4 0 0 0-.244.222c-1.385 1.775-1.305 3.884.467 6.845 1.8 3.008 7.237 8.244 8.933 11 1.788 2.906 3.39 5.782 1.623 7.578-1.82 1.849-4.868-1.87-7 .134-1.873 1.76-1.998 3.634.155 8.31 2.153 4.678 4.195 6.392 6.245 8.712 1.649 1.868 8.578 7.802 9.266 10.956.645 2.954.206 5.864-.866 8.734l4.355 1.578c-.329-4.015-.818-7.11.29-8.312 1.299-1.41 8.195-7.9 10.4-10.978 2.153-3.007 8.758-9.947 8.022-14.4-.742-4.492-5.285-1.716-6.844-2.978-1.426-1.154-1.278-3.82.31-6.378 1.523-2.45 4.841-5.459 8.757-8.756 3.526-2.97 6.244-8.678 5.044-11.89-1.15-3.08-3.026-2.15-5.489-1.044-2.561 1.15-4.637 1.891-4.6-2.378.037-4.417 3.659-6.237 8-11.578 4.195-5.16 3.909-9.249 1.49-12.311-2.377-3.007-6.795-2.978-10.09-.756-3.192 2.153-6.33 5.907-8.223 4.311s-1.436-7.344.445-9.867c1.778-2.385.874-6.529-2.467-8.533-1.853-1.112-3.916-1.68-5.956-1.578m.756 13.223 1.044 30.512 15.668-18.179-15.379 20.779-.066 17.956 14.622-14.178-14.911 17.445-.178 18.423 9.09-8.779 2.155-.733-11.667 13.867-.311 3.09-1.423.8-1.622-3.268-9.045-15 9.423 11.423h.822v-19.89l-12.911-16.178 13.422 12.845v-17.312L73.53 147.52l12.467 17.445z" style="fill:#fff;fill-opacity:1;fill-rule:evenodd;stroke:none;stroke-width:.35433072;stroke-linecap:butt;stroke-linejoin:miter;stroke-miterlimit:4;stroke-dasharray:none;stroke-opacity:1"/><path d="M55.404 242.333c6.793.185 9.24 4.546 13.883 3.934 4.788-.63 9.168-7.572 15.961-7.275 6.788.297 6.394 2.117 8.974 4.15s5.522 4.056 8.176 4.09c5.753.075 9.02-5.563 12.62-5.345 1.838.111 3.063.833 4.218 1.528 1.156.695 3.99 2.555 6.621 2.555 2.63 0 3.631-1.094 6.088-2.747l-1.633-1.93c-2.769 1.892-4.27 1.3-7.202.223-3.063-1.125-3.897-3.192-8.537-2.97-2.283.112-4.25 1.346-5.851 2.9-1.6 1.555-2.835 3.43-5.73 3.336-5.79-.185-8.352-9.168-17.001-9.502s-12.504 8.166-17.298 8.166c-4.72 0-7.572-5.26-13.66-5.42-6.09-.159-10.574 4.139-15.145 5.643l1.93 2.227c5.034-.964 6.793-3.749 13.586-3.563" style="fill:#fff;fill-opacity:1;fill-rule:evenodd;stroke:none;stroke-width:1px;stroke-linecap:butt;stroke-linejoin:miter;stroke-opacity:1"/><path d="m54.637 249.255-.21 1.102c1.699.583 5.698 1.638 7.35 2.73 1.627 1.076 3.963 2.835 6.246 2.782 2.6-.06 7.365-2.077 8.977-3.097 1.785-1.129 3.229-3.49 7.35-3.675 4.12-.183 6.323.873 9.029 2.783 2.23 1.575 5.013 3.438 8.924 3.674 3.91.237 4.993-2.397 6.72-3.044 1.68-.63 2.878-1.462 5.039-.315l1.575-1.575c-2.317-.886-3.493-.98-4.62-.788-1.076.184-2.074.84-3.202 1.523-1.09.66-3.202 1.942-5.407 1.837-2.31-.11-5.433-1.969-7.245-3.307-1.836-1.358-5.485-3.649-10.079-3.78-4.593-.131-7.729 2.996-9.869 4.2-2.1 1.181-4.777 2.566-7.297 2.52-2.834-.053-5.984-2.494-7.664-2.993-1.79-.531-3.89-.743-5.617-.577" style="fill:#fff;fill-opacity:1;fill-rule:evenodd;stroke:none;stroke-width:.35433072;stroke-linecap:butt;stroke-linejoin:miter;stroke-miterlimit:4;stroke-dasharray:none;stroke-opacity:1"/><path d="M6.719 85.156c-.386 1.495-.77 3.011-1.125 4.531v9.876H3.53a212 212 0 0 0-.719 4.218h24.5v-4.219H9.782V88.5h48.312v11.063H40.563v4.218h39.25v-4.219H62.28V88.5H111v11.063H93.469v4.218h39.25v-4.219h-17.531V88.5h47.687v11.063h-17.531v4.218h21.844a205 205 0 0 0-3.907-18.625zm7.625 6.781v4.22h17.531v11.03H2.313a218 218 0 0 0-.47 3.376h166.313a218 218 0 0 0-.469-3.376H141.47v-11.03H159v-4.22h-39.25v4.22h17.531v11.03h-48.5v-11.03h17.5v-4.22H67.062v4.22h17.5v11.03h-48.5v-11.03h17.532v-4.22z" style="color:#000;fill:#fff;fill-opacity:1;fill-rule:evenodd;stroke:none;stroke-width:2.00034547;stroke-linecap:butt;stroke-linejoin:round;marker:none;marker-start:none;marker-mid:none;marker-end:none;stroke-miterlimit:4;stroke-dasharray:none;stroke-dashoffset:0;stroke-opacity:1;visibility:visible;display:inline;overflow:visible"/></g></svg>