<svg xmlns="http://www.w3.org/2000/svg" fill="#448aff" viewBox="0 0 16 16"><path d="M27 21.75c-.8 0-1.54.23-2.17.62l.02-.01-2.7-2.45a7.17 7.17 0 0 0-.2-8.13l.02.02 3.06-3.06A4.25 4.25 0 1 0 22.75 5c0 .72.2 1.4.52 2l-.01-.03-3.06 3.06a7 7 0 0 0-6.61-.9l.04-.01L13 7.95a4.22 4.22 0 1 0-2.16 1.2h-.02l.64 1.17a7.11 7.11 0 0 0-2.54 7.39l-.01-.05-.67.28a4.22 4.22 0 1 0 1.02 2.75v-.02c0-.16-.02-.3-.05-.45v.02l.67-.28a7.23 7.23 0 0 0 10.6 1.77v.01l2.7 2.46A4.25 4.25 0 1 0 27 21.75zM8.19 5a1.75 1.75 0 1 1 1.75 1.75c-.97 0-1.75-.78-1.75-1.75zM5 22.42a1.75 1.75 0 1 1 1.75-1.75c0 .97-.78 1.75-1.75 1.75zM27 3.25A1.75 1.75 0 1 1 25.25 5c0-.97.78-1.75 1.75-1.75zM11.19 16a4.8 4.8 0 0 1 8.2-3.4 4.8 4.8 0 0 1-3.4 8.2 4.8 4.8 0 0 1-4.8-4.8zM27 27.75A1.75 1.75 0 1 1 28.75 26c0 .97-.78 1.75-1.75 1.75z"/></svg>